<?xml version="1.0" encoding="UTF-8"?>
<svg id="Layer_1" xmlns="http://www.w3.org/2000/svg" version="1.1" viewBox="0 0 1308.1 334.8">
  <!-- Generator: Adobe Illustrator 29.6.1, SVG Export Plug-In . SVG Version: 2.1.1 Build 9)  -->
  <defs>
    <style>
      .st0, .st1, .st2 {
        fill: #fff;
      }

      .st3, .st1, .st4 {
        isolation: isolate;
      }

      .st5, .st4 {
        fill: #3b82f6;
      }

      .st1, .st4 {
        font-size: 160.7px;
      }

      .st1, .st4, .st2 {
        font-family: Poppins-Bold, Poppins;
        font-weight: 700;
      }

      .st6 {
        display: none;
      }

      .st2 {
        font-size: 88.3px;
      }
    </style>
  </defs>
  <g class="st6">
    <g>
      <path class="st5" d="M392.2,105.9h31.5v104.6h-31.5v-104.6Z"/>
      <path class="st5" d="M476.5,129.3v57.7h58.1v-18.1h-21.5l-21.4-21.2h74.4v39.3l-23.3,23.5h-74.1l-23.8-23.5v-57.2l23.8-23.9h101.1l-23.2,23.5h-70.2.1Z"/>
      <path class="st5" d="M584.3,187v-39.1l23.8-23.9h93.5v86.4h-31.5v-11.2l-11.4,11.4h-50.6l-23.8-23.5h0ZM615.9,187h54.2v-39.6h-54.2v39.6Z"/>
      <path class="st5" d="M724,123.9h31.5v11.4l11.4-11.4h42.3l17.8,17.5,17.5-17.5h42.3l23.8,23.5v62.9h-31.5v-62.9h-46v62.9h-31.5v-62.9h-45.9v62.9h-31.5v-86.4h-.2,0Z"/>
      <path class="st5" d="M962.9,90v24.6h-31.5v-24.6h31.5ZM931.4,210.3v-86.4h31.5v86.4h-31.5Z"/>
      <path class="st5" d="M1017,123.9v11.4l11.4-11.4h49l23.8,23.5v62.9h-31.5v-62.9h-52.6v62.9h-31.5v-86.4h31.5-.1Z"/>
      <path class="st5" d="M1142.8,123.9h93.5v104l-23.8,23.5h-60.8l-23.5-23.5h76.5v-28.8l-11.4,11.4h-50.6l-23.8-23.5v-39.1l23.8-23.9h.1ZM1150.6,147.4v39.6h54.2v-39.6h-54.2Z"/>
    </g>
    <g>
      <g>
        <path class="st5" d="M161,25.2c-7.3,0-13.2,5.9-13.2,13.2s3.1,9.8,7.6,11.9v31.1h11v-31c4.6-2.1,7.8-6.7,7.8-12s-5.9-13.2-13.2-13.2h0Z"/>
        <path class="st5" d="M278.3,38.4c0-7.3-5.9-13.2-13.2-13.2s-13.2,5.9-13.2,13.2,3.2,9.9,7.7,12v31.1h11v-31.1c4.5-2.1,7.7-6.7,7.7-12Z"/>
        <path class="st5" d="M213.1,25.2c-7.3,0-13.2,5.9-13.2,13.2s3.2,9.9,7.7,12v31.1h11v-31.1c4.5-2.1,7.7-6.7,7.7-12s-5.9-13.2-13.2-13.2Z"/>
      </g>
      <g>
        <path class="st5" d="M161,309.6c-7.3,0-13.2-5.9-13.2-13.2s3.1-9.8,7.6-11.9v-31.1h11v31c4.6,2.1,7.8,6.7,7.8,12s-5.9,13.2-13.2,13.2h0Z"/>
        <path class="st5" d="M278.3,296.4c0,7.3-5.9,13.2-13.2,13.2s-13.2-5.9-13.2-13.2,3.2-9.9,7.7-12v-31.1h11v31.1c4.5,2.1,7.7,6.7,7.7,12Z"/>
        <path class="st5" d="M213.1,309.6c-7.3,0-13.2-5.9-13.2-13.2s3.2-9.9,7.7-12v-31.1h11v31.1c4.5,2.1,7.7,6.7,7.7,12s-5.9,13.2-13.2,13.2Z"/>
      </g>
      <g>
        <path class="st5" d="M354.3,219.7c0,7.3-5.9,13.2-13.2,13.2s-9.8-3.1-11.9-7.6h-31.1v-11h31c2.1-4.6,6.7-7.8,12-7.8s13.2,5.9,13.2,13.2h0Z"/>
        <path class="st5" d="M341.1,102.3c7.3,0,13.2,5.9,13.2,13.2s-5.9,13.2-13.2,13.2-9.9-3.2-12-7.7h-31.1v-11h31.1c2.1-4.5,6.7-7.7,12-7.7Z"/>
        <path class="st5" d="M354.3,167.6c0,7.3-5.9,13.2-13.2,13.2s-9.9-3.2-12-7.7h-31.1v-11h31.1c2.1-4.5,6.7-7.7,12-7.7s13.2,5.9,13.2,13.2Z"/>
      </g>
      <g>
        <path class="st5" d="M71.8,219.7c0,7.3,5.9,13.2,13.2,13.2s9.8-3.1,11.9-7.6h31.1v-11h-31c-2.1-4.6-6.7-7.8-12-7.8s-13.2,5.9-13.2,13.2h0Z"/>
        <path class="st5" d="M85,102.3c-7.3,0-13.2,5.9-13.2,13.2s5.9,13.2,13.2,13.2,9.9-3.2,12-7.7h31.1v-11h-31.1c-2.1-4.5-6.7-7.7-12-7.7Z"/>
        <path class="st5" d="M71.8,167.6c0,7.3,5.9,13.2,13.2,13.2s9.9-3.2,12-7.7h31.1v-11h-31.1c-2.1-4.5-6.7-7.7-12-7.7s-13.2,5.9-13.2,13.2Z"/>
      </g>
      <path class="st5" d="M284.9,94.3c.8,0,1.5.7,1.5,1.5v143.3c0,.8-.7,1.5-1.5,1.5h-143.3c-.8,0-1.5-.7-1.5-1.5V95.7c0-.8.7-1.5,1.5-1.5h143.3M284.9,81.5h-143.3c-7.9,0-14.2,6.4-14.2,14.2v143.3c0,7.9,6.4,14.2,14.2,14.2h143.3c7.9,0,14.2-6.4,14.2-14.2V95.7c0-7.9-6.4-14.2-14.2-14.2h0Z"/>
      <path class="st5" d="M258,121.1c.8,0,1.5.7,1.5,1.5v89.6c0,.8-.7,1.5-1.5,1.5h-89.6c-.8,0-1.5-.7-1.5-1.5v-89.6c0-.8.7-1.5,1.5-1.5h89.6M258,108.4h-89.6c-7.9,0-14.2,6.4-14.2,14.2v89.6c0,7.9,6.4,14.2,14.2,14.2h89.6c7.9,0,14.2-6.4,14.2-14.2v-89.6c0-7.9-6.4-14.2-14.2-14.2h0Z"/>
      <rect class="st5" x="238.1" y="144.9" width="24.2" height="10.4"/>
      <rect class="st5" x="237.3" y="178" width="25.1" height="12"/>
      <g>
        <g>
          <path class="st0" d="M173.2,191.7c-1,0-1.7-.8-1.7-1.8v-45c0-1,.8-1.8,1.8-1.8h13.6c1,0,1.8.8,1.8,1.8v45c0,.5-.2.9-.5,1.2s-.8.5-1.2.5h-13.8Z"/>
          <path class="st5" d="M186.8,145v45h-13.6v-45h13.6M186.8,141.5h-13.6c-1.9,0-3.5,1.6-3.5,3.5v45c0,1.9,1.6,3.5,3.5,3.5h13.6c.9,0,1.8-.4,2.5-1,.7-.7,1-1.6,1-2.5v-45c0-1.9-1.6-3.5-3.5-3.5h0Z"/>
        </g>
        <g>
          <path class="st0" d="M206.2,191.8c-.5,0-.9-.2-1.2-.5l-10.2-10.1c-.3-.3-.5-.8-.5-1.2v-24.6c0-.5.2-.9.5-1.2l10.2-10.3c.3-.3.8-.5,1.2-.5h43.5c.7,0,1.3.4,1.6,1.1.3.7.1,1.4-.4,1.9l-10,10.1c-.3.3-.8.5-1.2.5h-28.5v21.3h21.5v-4.3h-7.5c-.5,0-.9-.2-1.2-.5l-9.2-9.1c-.5-.5-.7-1.3-.4-1.9.3-.7.9-1.1,1.6-1.1h32c1,0,1.8.8,1.8,1.8v16.9c0,.5-.2.9-.5,1.2l-10,10.1c-.3.3-.8.5-1.2.5h-31.9Z"/>
          <path class="st5" d="M249.7,145l-10,10.1h-30.2v24.8h25v-7.8h-9.3l-9.2-9.1h32v16.9l-10,10.1h-31.9l-10.2-10.1v-24.6l10.2-10.3h43.5M249.7,141.5h-43.5c-.9,0-1.8.4-2.5,1l-10.2,10.3c-.7.7-1,1.5-1,2.5v24.6c0,.9.4,1.8,1,2.5l10.2,10.1c.7.6,1.5,1,2.5,1h31.9c.9,0,1.8-.4,2.5-1l10-10.1c.7-.7,1-1.5,1-2.5v-16.9c0-1.9-1.6-3.5-3.5-3.5h-32c-1.3,0-2.4.7-3.1,1.8v-2.7h26.7c.9,0,1.8-.4,2.5-1l10-10.1c1-1,1.3-2.5.7-3.8-.5-1.3-1.8-2.2-3.2-2.2h0ZM249.7,148.5h0ZM213,176.4v-11.7c.2.3.4.5.6.8l9.2,9.1c.7.7,1.5,1,2.5,1h5.8v.8h-18.1Z"/>
        </g>
      </g>
    </g>
  </g>
  <g>
    <g>
      <g>
        <g>
          <path class="st5" d="M321.4,13.4c-6.7,0-12.3,5.5-12.3,12.3s2.9,9.1,7.1,11v28.9h10.2v-28.6c4.2-1.8,7.2-6.2,7.2-11.2s-5.5-12.3-12.3-12.3h.1Z"/>
          <path class="st5" d="M429.9,25.7c0-6.7-5.5-12.3-12.3-12.3s-12.3,5.5-12.3,12.3,2.9,9.1,7.2,11.1v28.8h10.2v-28.8c4.2-1.8,7.2-6.2,7.2-11.1h0Z"/>
          <path class="st5" d="M369.5,13.4c-6.7,0-12.3,5.5-12.3,12.3s2.9,9.1,7.2,11.1v28.8h10.2v-28.8c4.2-1.8,7.2-6.2,7.2-11.1s-5.5-12.3-12.3-12.3h0Z"/>
        </g>
        <g>
          <path class="st5" d="M321.4,276.7c-6.7,0-12.3-5.5-12.3-12.3s2.9-9.1,7.1-11v-28.9h10.2v28.6c4.2,1.8,7.2,6.2,7.2,11.2s-5.5,12.3-12.3,12.3h.1Z"/>
          <path class="st5" d="M429.9,264.5c0,6.7-5.5,12.3-12.3,12.3s-12.3-5.5-12.3-12.3,2.9-9.1,7.2-11.1v-28.8h10.2v28.8c4.2,1.8,7.2,6.2,7.2,11.1h0Z"/>
          <path class="st5" d="M369.5,276.7c-6.7,0-12.3-5.5-12.3-12.3s2.9-9.1,7.2-11.1v-28.8h10.2v28.8c4.2,1.8,7.2,6.2,7.2,11.1s-5.5,12.3-12.3,12.3h0Z"/>
        </g>
        <g>
          <path class="st5" d="M500.4,193.4c0,6.7-5.5,12.3-12.3,12.3s-9.1-2.9-11-7.1h-28.9v-10.2h28.6c1.8-4.2,6.2-7.2,11.2-7.2s12.3,5.5,12.3,12.3h0Z"/>
          <path class="st5" d="M488.1,84.8c6.7,0,12.3,5.5,12.3,12.3s-5.5,12.3-12.3,12.3-9.1-2.9-11.1-7.2h-28.8v-10.2h28.8c1.8-4.2,6.2-7.2,11.1-7.2h0Z"/>
          <path class="st5" d="M500.4,145.3c0,6.7-5.5,12.3-12.3,12.3s-9.1-2.9-11.1-7.2h-28.8v-10.2h28.8c1.8-4.2,6.2-7.2,11.1-7.2s12.3,5.5,12.3,12.3h0Z"/>
        </g>
        <g>
          <path class="st5" d="M238.8,193.4c0,6.7,5.5,12.3,12.3,12.3s9.1-2.9,11-7.1h28.9v-10.2h-28.6c-1.8-4.2-6.2-7.2-11.2-7.2s-12.3,5.5-12.3,12.3h0Z"/>
          <path class="st5" d="M251,84.8c-6.7,0-12.3,5.5-12.3,12.3s5.5,12.3,12.3,12.3,9.1-2.9,11.1-7.2h28.8v-10.2h-28.8c-1.8-4.2-6.2-7.2-11.1-7.2h0Z"/>
          <path class="st5" d="M238.8,145.3c0,6.7,5.5,12.3,12.3,12.3s9.1-2.9,11.1-7.2h28.8v-10.2h-28.8c-1.8-4.2-6.2-7.2-11.1-7.2s-12.3,5.5-12.3,12.3h0Z"/>
        </g>
        <path class="st5" d="M436,77.3c.8,0,1.3.7,1.3,1.3v132.7c0,.8-.7,1.3-1.3,1.3h-132.7c-.8,0-1.3-.7-1.3-1.3V78.8c0-.8.7-1.3,1.3-1.3h132.7M436,65.5h-132.7c-7.3,0-13.1,5.9-13.1,13.1v132.7c0,7.3,5.9,13.1,13.1,13.1h132.7c7.3,0,13.1-5.9,13.1-13.1V78.8c0-7.3-5.9-13.1-13.1-13.1h0Z"/>
        <path class="st5" d="M411.2,102.2c.8,0,1.3.7,1.3,1.3v83c0,.8-.7,1.3-1.3,1.3h-83c-.8,0-1.3-.7-1.3-1.3v-83c0-.8.7-1.3,1.3-1.3h83M411.2,90.5h-83c-7.3,0-13.1,5.9-13.1,13.1v83c0,7.3,5.9,13.1,13.1,13.1h83c7.3,0,13.1-5.9,13.1-13.1v-83c0-7.3-5.9-13.1-13.1-13.1h0Z"/>
        <rect class="st5" x="392.7" y="124.2" width="22.5" height="9.7"/>
        <rect class="st5" x="392" y="154.8" width="23.2" height="11.1"/>
        <g>
          <path class="st0" d="M332.6,124.3h12.6v41.7h-12.6s0-41.7,0-41.7Z"/>
          <path class="st0" d="M366.3,133.7v23h23.2v-7.2h-8.6l-8.5-8.5h29.6v15.7l-9.3,9.3h-29.5l-9.4-9.3v-22.8l9.4-9.5h40.4l-9.2,9.3h-28.1Z"/>
        </g>
      </g>
      <g class="st3">
        <text class="st4" transform="translate(521.2 194.3)"><tspan x="0" y="0">IG</tspan></text>
        <text class="st1" transform="translate(691.1 194.3)"><tspan x="0" y="0">ame</tspan></text>
      </g>
    </g>
    <text class="st2" transform="translate(800.2 267.8)"><tspan x="0" y="0">Cloud</tspan></text>
  </g>
</svg>