<?xml version="1.0" encoding="UTF-8"?>
<svg id="Layer_1" xmlns="http://www.w3.org/2000/svg" version="1.1" viewBox="0 0 1308.1 334.8">
  <!-- Generator: Adobe Illustrator 29.6.1, SVG Export Plug-In . SVG Version: 2.1.1 Build 9)  -->
  <defs>
    <style>
      .st0, .st1, .st2, .st3, .st4 {
        isolation: isolate;
      }

      .st0, .st5 {
        display: none;
      }

      .st6, .st1 {
        fill: #fff;
      }

      .st1, .st4 {
        font-family: BruceForever-Regular, 'Bruce Forever';
        font-size: 93.1px;
      }

      .st2 {
        font-size: 192.6px;
      }

      .st2, .st7, .st8, .st4 {
        fill: #3b82f6;
      }

      .st2, .st8 {
        font-family: Poppins-Bold, Poppins;
        font-weight: 700;
      }

      .st8 {
        font-size: 106px;
      }
    </style>
  </defs>
  <g class="st5">
    <g class="st0">
      <g class="st0">
        <g class="st0">
          <text class="st4" transform="translate(1458.4 458.1)"><tspan x="0" y="0">IG</tspan></text>
        </g>
      </g>
      <g class="st0">
        <g class="st0">
          <text class="st1" transform="translate(1580.3 458.1)"><tspan x="0" y="0">aming</tspan></text>
        </g>
      </g>
    </g>
    <g>
      <g>
        <path class="st7" d="M1322.4,342.7c-4.6,0-8.2,3.7-8.2,8.2s1.9,6.1,4.7,7.4v19.4h6.9v-19.3c2.9-1.3,4.9-4.2,4.9-7.5s-3.7-8.2-8.2-8.2h-.1Z"/>
        <path class="st7" d="M1395.5,351c0-4.6-3.7-8.2-8.2-8.2s-8.2,3.7-8.2,8.2,2,6.2,4.8,7.5v19.4h6.9v-19.4c2.8-1.3,4.8-4.1,4.8-7.5h-.1Z"/>
        <path class="st7" d="M1354.8,342.7c-4.6,0-8.2,3.7-8.2,8.2s2,6.2,4.8,7.5v19.4h6.9v-19.4c2.8-1.3,4.8-4.1,4.8-7.5s-3.7-8.2-8.2-8.2h-.1Z"/>
      </g>
      <g>
        <path class="st7" d="M1322.4,519.9c-4.6,0-8.2-3.7-8.2-8.2s1.9-6.1,4.7-7.4v-19.4h6.9v19.3c2.9,1.3,4.9,4.2,4.9,7.5s-3.7,8.2-8.2,8.2h-.1Z"/>
        <path class="st7" d="M1395.5,511.7c0,4.6-3.7,8.2-8.2,8.2s-8.2-3.7-8.2-8.2,2-6.2,4.8-7.5v-19.4h6.9v19.4c2.8,1.3,4.8,4.1,4.8,7.5h-.1Z"/>
        <path class="st7" d="M1354.8,519.9c-4.6,0-8.2-3.7-8.2-8.2s2-6.2,4.8-7.5v-19.4h6.9v19.4c2.8,1.3,4.8,4.1,4.8,7.5s-3.7,8.2-8.2,8.2h-.1Z"/>
      </g>
      <g>
        <path class="st7" d="M1442.8,463.9c0,4.6-3.7,8.2-8.2,8.2s-6.1-1.9-7.4-4.7h-19.4v-6.9h19.3c1.3-2.9,4.2-4.9,7.5-4.9s8.2,3.7,8.2,8.2h0Z"/>
        <path class="st7" d="M1434.6,390.8c4.6,0,8.2,3.7,8.2,8.2s-3.7,8.2-8.2,8.2-6.2-2-7.5-4.8h-19.4v-6.9h19.4c1.3-2.8,4.1-4.8,7.5-4.8h0Z"/>
        <path class="st7" d="M1442.8,431.4c0,4.6-3.7,8.2-8.2,8.2s-6.2-2-7.5-4.8h-19.4v-6.9h19.4c1.3-2.8,4.1-4.8,7.5-4.8s8.2,3.7,8.2,8.2h0Z"/>
      </g>
      <g>
        <path class="st7" d="M1266.8,463.9c0,4.6,3.7,8.2,8.2,8.2s6.1-1.9,7.4-4.7h19.4v-6.9h-19.3c-1.3-2.9-4.2-4.9-7.5-4.9s-8.2,3.7-8.2,8.2h0Z"/>
        <path class="st7" d="M1275,390.8c-4.6,0-8.2,3.7-8.2,8.2s3.7,8.2,8.2,8.2,6.2-2,7.5-4.8h19.4v-6.9h-19.4c-1.3-2.8-4.1-4.8-7.5-4.8h0Z"/>
        <path class="st7" d="M1266.8,431.4c0,4.6,3.7,8.2,8.2,8.2s6.2-2,7.5-4.8h19.4v-6.9h-19.4c-1.3-2.8-4.1-4.8-7.5-4.8s-8.2,3.7-8.2,8.2h0Z"/>
      </g>
      <path class="st7" d="M1399.6,385.8c.5,0,.9.4.9.9v89.3c0,.5-.4.9-.9.9h-89.3c-.5,0-.9-.4-.9-.9v-89.3c0-.5.4-.9.9-.9h89.3M1399.6,377.8h-89.3c-4.9,0-8.9,4-8.9,8.9v89.3c0,4.9,4,8.9,8.9,8.9h89.3c4.9,0,8.9-4,8.9-8.9v-89.3c0-4.9-4-8.9-8.9-8.9h0Z"/>
      <path class="st7" d="M1382.8,402.5c.5,0,.9.4.9.9v55.8c0,.5-.4.9-.9.9h-55.8c-.5,0-.9-.4-.9-.9v-55.8c0-.5.4-.9.9-.9h55.8M1382.8,394.5h-55.8c-4.9,0-8.9,4-8.9,8.9v55.8c0,4.9,4,8.9,8.9,8.9h55.8c4.9,0,8.9-4,8.9-8.9v-55.8c0-4.9-4-8.9-8.9-8.9h0Z"/>
      <rect class="st7" x="1370.4" y="417.3" width="15.1" height="6.5"/>
      <rect class="st7" x="1369.9" y="437.9" width="15.6" height="7.5"/>
      <g>
        <path class="st6" d="M1330,417.4h8.5v28h-8.5v-28Z"/>
        <path class="st6" d="M1352.6,423.6v15.5h15.6v-4.8h-5.8l-5.7-5.7h20v10.5l-6.2,6.3h-19.9l-6.4-6.3v-15.3l6.4-6.4h27.1l-6.2,6.3h-18.9Z"/>
      </g>
    </g>
  </g>
  <g>
    <g>
      <g>
        <path class="st7" d="M239.1,10.8c-7,0-12.7,5.7-12.7,12.7s3,9.4,7.3,11.4v29.9h10.6v-29.8c4.4-2,7.5-6.5,7.5-11.5s-5.7-12.7-12.7-12.7h-.1Z"/>
        <path class="st7" d="M352,23.5c0-7-5.7-12.7-12.7-12.7s-12.7,5.7-12.7,12.7,3,9.5,7.3,11.5v29.9h10.6v-29.9c4.3-2,7.3-6.5,7.3-11.5Z"/>
        <path class="st7" d="M289.3,10.8c-7,0-12.7,5.7-12.7,12.7s3,9.5,7.3,11.5v29.9h10.6v-29.9c4.3-2,7.3-6.5,7.3-11.5s-5.7-12.7-12.7-12.7Z"/>
      </g>
      <g>
        <path class="st7" d="M239.1,284.6c-7,0-12.7-5.7-12.7-12.7s3-9.4,7.3-11.4v-29.9h10.6v29.8c4.4,2,7.5,6.5,7.5,11.5s-5.7,12.7-12.7,12.7h-.1Z"/>
        <path class="st7" d="M352,271.9c0,7-5.7,12.7-12.7,12.7s-12.7-5.7-12.7-12.7,3-9.5,7.3-11.5v-29.9h10.6v29.9c4.3,2,7.3,6.5,7.3,11.5Z"/>
        <path class="st7" d="M289.3,284.6c-7,0-12.7-5.7-12.7-12.7s3-9.5,7.3-11.5v-29.9h10.6v29.9c4.3,2,7.3,6.5,7.3,11.5s-5.7,12.7-12.7,12.7Z"/>
      </g>
      <g>
        <path class="st7" d="M425.1,198c0,7-5.7,12.7-12.7,12.7s-9.4-3-11.4-7.3h-29.9v-10.6h29.8c2-4.4,6.5-7.5,11.5-7.5s12.7,5.7,12.7,12.7h0Z"/>
        <path class="st7" d="M412.4,85.1c7,0,12.7,5.7,12.7,12.7s-5.7,12.7-12.7,12.7-9.5-3-11.5-7.3h-29.9v-10.6h29.9c2-4.3,6.5-7.3,11.5-7.3Z"/>
        <path class="st7" d="M425.1,148c0,7-5.7,12.7-12.7,12.7s-9.5-3-11.5-7.3h-29.9v-10.6h29.9c2-4.3,6.5-7.3,11.5-7.3s12.7,5.7,12.7,12.7Z"/>
      </g>
      <g>
        <path class="st7" d="M153.3,198c0,7,5.7,12.7,12.7,12.7s9.4-3,11.4-7.3h29.9v-10.6h-29.8c-2-4.4-6.5-7.5-11.5-7.5s-12.7,5.7-12.7,12.7h0Z"/>
        <path class="st7" d="M166,85.1c-7,0-12.7,5.7-12.7,12.7s5.7,12.7,12.7,12.7,9.5-3,11.5-7.3h29.9v-10.6h-29.9c-2-4.3-6.5-7.3-11.5-7.3Z"/>
        <path class="st7" d="M153.3,148c0,7,5.7,12.7,12.7,12.7s9.5-3,11.5-7.3h29.9v-10.6h-29.9c-2-4.3-6.5-7.3-11.5-7.3s-12.7,5.7-12.7,12.7Z"/>
      </g>
      <path class="st7" d="M358.3,77.4c.8,0,1.4.6,1.4,1.4v137.9c0,.8-.6,1.4-1.4,1.4h-137.9c-.8,0-1.4-.6-1.4-1.4V78.6c0-.8.6-1.4,1.4-1.4h137.9M358.3,65.1h-137.9c-7.6,0-13.7,6.2-13.7,13.7v137.9c0,7.6,6.2,13.7,13.7,13.7h137.9c7.6,0,13.7-6.2,13.7-13.7V78.8c0-7.6-6.2-13.7-13.7-13.7h0Z"/>
      <path class="st7" d="M332.5,103.1c.8,0,1.4.6,1.4,1.4v86.2c0,.8-.6,1.4-1.4,1.4h-86.2c-.8,0-1.4-.6-1.4-1.4v-86.2c0-.8.6-1.4,1.4-1.4h86.2M332.5,90.9h-86.2c-7.6,0-13.7,6.2-13.7,13.7v86.2c0,7.6,6.2,13.7,13.7,13.7h86.2c7.6,0,13.7-6.2,13.7-13.7v-86.2c0-7.6-6.2-13.7-13.7-13.7h0Z"/>
      <rect class="st7" x="313.3" y="126" width="23.3" height="10"/>
      <rect class="st7" x="312.4" y="157.8" width="24.2" height="11.5"/>
      <g>
        <g>
          <path class="st6" d="M250.9,171.1c-1,0-1.6-.8-1.6-1.8v-43.3c0-1,.8-1.8,1.8-1.8h13.1c1,0,1.8.8,1.8,1.8v43.3c0,.5-.3.9-.5,1.1s-.8.5-1.1.5h-13.3Z"/>
          <path class="st7" d="M263.9,126.2v43.3h-13.1v-43.3h13.1M263.9,122.7h-13.1c-1.8,0-3.4,1.5-3.4,3.4v43.3c0,1.8,1.5,3.4,3.4,3.4h13.1c.9,0,1.8-.4,2.4-1s1-1.5,1-2.4v-43.3c0-1.8-1.5-3.4-3.4-3.4h0Z"/>
        </g>
        <g>
          <path class="st6" d="M282.5,171.1c-.5,0-.9-.3-1.1-.5l-9.8-9.8c-.3-.3-.5-.8-.5-1.1v-23.7c0-.5.3-.9.5-1.1l9.8-9.9c.3-.3.8-.5,1.1-.5h41.8c.6,0,1.3.4,1.5,1s0,1.4-.4,1.8l-9.6,9.8c-.3.3-.8.5-1.1.5h-27.4v20.5h20.7v-4.2h-7.2c-.5,0-.9-.3-1.1-.5l-8.9-8.7c-.5-.5-.6-1.3-.4-1.8.3-.6.9-1,1.5-1h30.8c1,0,1.8.8,1.8,1.8v16.2c0,.5-.3.9-.5,1.1l-9.6,9.8c-.3.3-.8.5-1.1.5h-30.7Z"/>
          <path class="st7" d="M324.5,126.2l-9.6,9.8h-29v23.8h24.1v-7.5h-9l-8.9-8.7h30.8v16.2l-9.6,9.8h-30.7l-9.8-9.8v-23.7l9.8-9.9h41.8M324.5,122.7h-41.8c-.9,0-1.8.4-2.4,1l-9.8,9.9c-.6.6-1,1.4-1,2.4v23.7c0,.9.4,1.8,1,2.4l9.8,9.8c.6.6,1.4,1,2.4,1h30.7c.9,0,1.8-.4,2.4-1l9.6-9.8c.6-.6,1-1.4,1-2.4v-16.2c0-1.8-1.5-3.4-3.4-3.4h-30.8c-1.3,0-2.3.6-3,1.8v-2.7h25.7c.9,0,1.8-.4,2.4-1l9.6-9.8c1-1,1.3-2.4.6-3.7-.5-1.3-1.8-2.2-3-2.2h0ZM324.5,129.5h0ZM289.1,156.3v-11.3c.3.3.4.5.6.8l8.9,8.7c.6.6,1.4,1,2.4,1h5.6v.8h-17.5,0Z"/>
        </g>
      </g>
    </g>
    <g class="st3">
      <g class="st3">
        <text class="st2" transform="translate(450.3 210.7)"><tspan x="0" y="0">IGame</tspan></text>
      </g>
    </g>
  </g>
  <text class="st8" transform="translate(784 309)"><tspan x="0" y="0">Cloud</tspan></text>
</svg>