<?xml version="1.0" encoding="UTF-8"?>
<svg id="Layer_1" xmlns="http://www.w3.org/2000/svg" version="1.1" viewBox="0 0 1308.1 334.8">
  <!-- Generator: Adobe Illustrator 29.6.1, SVG Export Plug-In . SVG Version: 2.1.1 Build 9)  -->
  <defs>
    <style>
      .st0, .st1, .st2 {
        fill: #fff;
      }

      .st1, .st2, .st3, .st4 {
        isolation: isolate;
      }

      .st1, .st2, .st4 {
        font-family: Poppins-Bold, Poppins;
        font-weight: 700;
      }

      .st1, .st4 {
        font-size: 160.7px;
      }

      .st2 {
        font-size: 65px;
      }

      .st5, .st4 {
        fill: #3b82f6;
      }

      .st6 {
        display: none;
      }
    </style>
  </defs>
  <g class="st6">
    <g>
      <path class="st5" d="M392.2,105.9h31.5v104.6h-31.5v-104.6Z"/>
      <path class="st5" d="M476.5,129.3v57.7h58.1v-18.1h-21.5l-21.4-21.2h74.4v39.3l-23.3,23.5h-74.1l-23.8-23.5v-57.2l23.8-23.9h101.1l-23.2,23.5h-70.2.1Z"/>
      <path class="st5" d="M584.3,187v-39.1l23.8-23.9h93.5v86.4h-31.5v-11.2l-11.4,11.4h-50.6l-23.8-23.5h0ZM615.9,187h54.2v-39.6h-54.2v39.6Z"/>
      <path class="st5" d="M724,123.9h31.5v11.4l11.4-11.4h42.3l17.8,17.5,17.5-17.5h42.3l23.8,23.5v62.9h-31.5v-62.9h-46v62.9h-31.5v-62.9h-45.9v62.9h-31.5v-86.4h-.2,0Z"/>
      <path class="st5" d="M962.9,90v24.6h-31.5v-24.6h31.5ZM931.4,210.3v-86.4h31.5v86.4h-31.5Z"/>
      <path class="st5" d="M1017,123.9v11.4l11.4-11.4h49l23.8,23.5v62.9h-31.5v-62.9h-52.6v62.9h-31.5v-86.4h31.5-.1Z"/>
      <path class="st5" d="M1142.8,123.9h93.5v104l-23.8,23.5h-60.8l-23.5-23.5h76.5v-28.8l-11.4,11.4h-50.6l-23.8-23.5v-39.1l23.8-23.9h.1ZM1150.6,147.4v39.6h54.2v-39.6h-54.2Z"/>
    </g>
    <g>
      <g>
        <path class="st5" d="M161,25.2c-7.3,0-13.2,5.9-13.2,13.2s3.1,9.8,7.6,11.9v31.1h11v-31c4.6-2.1,7.8-6.7,7.8-12s-5.9-13.2-13.2-13.2h0Z"/>
        <path class="st5" d="M278.3,38.4c0-7.3-5.9-13.2-13.2-13.2s-13.2,5.9-13.2,13.2,3.2,9.9,7.7,12v31.1h11v-31.1c4.5-2.1,7.7-6.7,7.7-12Z"/>
        <path class="st5" d="M213.1,25.2c-7.3,0-13.2,5.9-13.2,13.2s3.2,9.9,7.7,12v31.1h11v-31.1c4.5-2.1,7.7-6.7,7.7-12s-5.9-13.2-13.2-13.2Z"/>
      </g>
      <g>
        <path class="st5" d="M161,309.6c-7.3,0-13.2-5.9-13.2-13.2s3.1-9.8,7.6-11.9v-31.1h11v31c4.6,2.1,7.8,6.7,7.8,12s-5.9,13.2-13.2,13.2h0Z"/>
        <path class="st5" d="M278.3,296.4c0,7.3-5.9,13.2-13.2,13.2s-13.2-5.9-13.2-13.2,3.2-9.9,7.7-12v-31.1h11v31.1c4.5,2.1,7.7,6.7,7.7,12Z"/>
        <path class="st5" d="M213.1,309.6c-7.3,0-13.2-5.9-13.2-13.2s3.2-9.9,7.7-12v-31.1h11v31.1c4.5,2.1,7.7,6.7,7.7,12s-5.9,13.2-13.2,13.2Z"/>
      </g>
      <g>
        <path class="st5" d="M354.3,219.7c0,7.3-5.9,13.2-13.2,13.2s-9.8-3.1-11.9-7.6h-31.1v-11h31c2.1-4.6,6.7-7.8,12-7.8s13.2,5.9,13.2,13.2h0Z"/>
        <path class="st5" d="M341.1,102.3c7.3,0,13.2,5.9,13.2,13.2s-5.9,13.2-13.2,13.2-9.9-3.2-12-7.7h-31.1v-11h31.1c2.1-4.5,6.7-7.7,12-7.7Z"/>
        <path class="st5" d="M354.3,167.6c0,7.3-5.9,13.2-13.2,13.2s-9.9-3.2-12-7.7h-31.1v-11h31.1c2.1-4.5,6.7-7.7,12-7.7s13.2,5.9,13.2,13.2Z"/>
      </g>
      <g>
        <path class="st5" d="M71.8,219.7c0,7.3,5.9,13.2,13.2,13.2s9.8-3.1,11.9-7.6h31.1v-11h-31c-2.1-4.6-6.7-7.8-12-7.8s-13.2,5.9-13.2,13.2h0Z"/>
        <path class="st5" d="M85,102.3c-7.3,0-13.2,5.9-13.2,13.2s5.9,13.2,13.2,13.2,9.9-3.2,12-7.7h31.1v-11h-31.1c-2.1-4.5-6.7-7.7-12-7.7Z"/>
        <path class="st5" d="M71.8,167.6c0,7.3,5.9,13.2,13.2,13.2s9.9-3.2,12-7.7h31.1v-11h-31.1c-2.1-4.5-6.7-7.7-12-7.7s-13.2,5.9-13.2,13.2Z"/>
      </g>
      <path class="st5" d="M284.9,94.3c.8,0,1.5.7,1.5,1.5v143.3c0,.8-.7,1.5-1.5,1.5h-143.3c-.8,0-1.5-.7-1.5-1.5V95.7c0-.8.7-1.5,1.5-1.5h143.3M284.9,81.5h-143.3c-7.9,0-14.2,6.4-14.2,14.2v143.3c0,7.9,6.4,14.2,14.2,14.2h143.3c7.9,0,14.2-6.4,14.2-14.2V95.7c0-7.9-6.4-14.2-14.2-14.2h0Z"/>
      <path class="st5" d="M258,121.1c.8,0,1.5.7,1.5,1.5v89.6c0,.8-.7,1.5-1.5,1.5h-89.6c-.8,0-1.5-.7-1.5-1.5v-89.6c0-.8.7-1.5,1.5-1.5h89.6M258,108.4h-89.6c-7.9,0-14.2,6.4-14.2,14.2v89.6c0,7.9,6.4,14.2,14.2,14.2h89.6c7.9,0,14.2-6.4,14.2-14.2v-89.6c0-7.9-6.4-14.2-14.2-14.2h0Z"/>
      <rect class="st5" x="238.1" y="144.9" width="24.2" height="10.4"/>
      <rect class="st5" x="237.3" y="178" width="25.1" height="12"/>
      <g>
        <g>
          <path class="st0" d="M173.2,191.7c-1,0-1.7-.8-1.7-1.8v-45c0-1,.8-1.8,1.8-1.8h13.6c1,0,1.8.8,1.8,1.8v45c0,.5-.2.9-.5,1.2s-.8.5-1.2.5h-13.8Z"/>
          <path class="st5" d="M186.8,145v45h-13.6v-45h13.6M186.8,141.5h-13.6c-1.9,0-3.5,1.6-3.5,3.5v45c0,1.9,1.6,3.5,3.5,3.5h13.6c.9,0,1.8-.4,2.5-1,.7-.7,1-1.6,1-2.5v-45c0-1.9-1.6-3.5-3.5-3.5h0Z"/>
        </g>
        <g>
          <path class="st0" d="M206.2,191.8c-.5,0-.9-.2-1.2-.5l-10.2-10.1c-.3-.3-.5-.8-.5-1.2v-24.6c0-.5.2-.9.5-1.2l10.2-10.3c.3-.3.8-.5,1.2-.5h43.5c.7,0,1.3.4,1.6,1.1.3.7.1,1.4-.4,1.9l-10,10.1c-.3.3-.8.5-1.2.5h-28.5v21.3h21.5v-4.3h-7.5c-.5,0-.9-.2-1.2-.5l-9.2-9.1c-.5-.5-.7-1.3-.4-1.9.3-.7.9-1.1,1.6-1.1h32c1,0,1.8.8,1.8,1.8v16.9c0,.5-.2.9-.5,1.2l-10,10.1c-.3.3-.8.5-1.2.5h-31.9Z"/>
          <path class="st5" d="M249.7,145l-10,10.1h-30.2v24.8h25v-7.8h-9.3l-9.2-9.1h32v16.9l-10,10.1h-31.9l-10.2-10.1v-24.6l10.2-10.3h43.5M249.7,141.5h-43.5c-.9,0-1.8.4-2.5,1l-10.2,10.3c-.7.7-1,1.5-1,2.5v24.6c0,.9.4,1.8,1,2.5l10.2,10.1c.7.6,1.5,1,2.5,1h31.9c.9,0,1.8-.4,2.5-1l10-10.1c.7-.7,1-1.5,1-2.5v-16.9c0-1.9-1.6-3.5-3.5-3.5h-32c-1.3,0-2.4.7-3.1,1.8v-2.7h26.7c.9,0,1.8-.4,2.5-1l10-10.1c1-1,1.3-2.5.7-3.8-.5-1.3-1.8-2.2-3.2-2.2h0ZM249.7,148.5h0ZM213,176.4v-11.7c.2.3.4.5.6.8l9.2,9.1c.7.7,1.5,1,2.5,1h5.8v.8h-18.1Z"/>
        </g>
      </g>
    </g>
  </g>
  <g>
    <g>
      <path class="st5" d="M313.4,13.6c-7.8,0-14.4,6.4-14.4,14.4s3.4,10.6,8.3,12.8v33.7h11.9v-33.4c4.9-2.1,8.4-7.2,8.4-13.1s-6.4-14.4-14.4-14.4h.2Z"/>
      <path class="st5" d="M440,28c0-7.8-6.4-14.4-14.4-14.4s-14.4,6.4-14.4,14.4,3.4,10.6,8.4,13v33.6h11.9v-33.6c4.9-2.1,8.4-7.2,8.4-13h.1Z"/>
      <path class="st5" d="M369.5,13.6c-7.8,0-14.4,6.4-14.4,14.4s3.4,10.6,8.4,13v33.6h11.9v-33.6c4.9-2.1,8.4-7.2,8.4-13s-6.4-14.4-14.4-14.4h.1Z"/>
    </g>
    <g>
      <path class="st5" d="M313.4,321c-7.8,0-14.4-6.4-14.4-14.4s3.4-10.6,8.3-12.8v-33.7h11.9v33.4c4.9,2.1,8.4,7.2,8.4,13.1s-6.4,14.4-14.4,14.4h.2Z"/>
      <path class="st5" d="M440,306.7c0,7.8-6.4,14.4-14.4,14.4s-14.4-6.4-14.4-14.4,3.4-10.6,8.4-13v-33.6h11.9v33.6c4.9,2.1,8.4,7.2,8.4,13h.1Z"/>
      <path class="st5" d="M369.5,321c-7.8,0-14.4-6.4-14.4-14.4s3.4-10.6,8.4-13v-33.6h11.9v33.6c4.9,2.1,8.4,7.2,8.4,13s-6.4,14.4-14.4,14.4h.1Z"/>
    </g>
    <g>
      <path class="st5" d="M522.3,223.7c0,7.8-6.4,14.4-14.4,14.4s-10.6-3.4-12.8-8.3h-33.7v-11.9h33.4c2.1-4.9,7.2-8.4,13.1-8.4s14.4,6.4,14.4,14.4h0v-.2Z"/>
      <path class="st5" d="M507.9,97.1c7.8,0,14.4,6.4,14.4,14.4s-6.4,14.4-14.4,14.4-10.6-3.4-13-8.4h-33.6v-11.9h33.6c2.1-4.9,7.2-8.4,13-8.4h0Z"/>
      <path class="st5" d="M522.3,167.6c0,7.8-6.4,14.4-14.4,14.4s-10.6-3.4-13-8.4h-33.6v-11.9h33.6c2.1-4.9,7.2-8.4,13-8.4s14.4,6.4,14.4,14.4h0Z"/>
    </g>
    <g>
      <path class="st5" d="M217,223.7c0,7.8,6.4,14.4,14.4,14.4s10.6-3.4,12.8-8.3h33.7v-11.9h-33.4c-2.1-4.9-7.2-8.4-13.1-8.4s-14.4,6.4-14.4,14.4h-.1v-.2Z"/>
      <path class="st5" d="M231.2,97.1c-7.8,0-14.4,6.4-14.4,14.4s6.4,14.4,14.4,14.4,10.6-3.4,13-8.4h33.6v-11.9h-33.6c-2.1-4.9-7.2-8.4-13-8.4h0Z"/>
      <path class="st5" d="M217,167.6c0,7.8,6.4,14.4,14.4,14.4s10.6-3.4,13-8.4h33.6v-11.9h-33.6c-2.1-4.9-7.2-8.4-13-8.4s-14.4,6.4-14.4,14.4h0Z"/>
    </g>
    <path class="st5" d="M447.1,88.2c.9,0,1.5.8,1.5,1.5v154.9c0,.9-.8,1.5-1.5,1.5h-154.9c-.9,0-1.5-.8-1.5-1.5V90.1c0-.9.8-1.5,1.5-1.5h154.9M447.1,74.4h-154.9c-8.5,0-15.3,6.9-15.3,15.3v154.9c0,8.5,6.9,15.3,15.3,15.3h154.9c8.5,0,15.3-6.9,15.3-15.3V90.1c0-8.5-6.9-15.3-15.3-15.3h0v-.2h0Z"/>
    <path class="st5" d="M418.2,117.3c.9,0,1.5.8,1.5,1.5v96.9c0,.9-.8,1.5-1.5,1.5h-96.9c-.9,0-1.5-.8-1.5-1.5v-96.9c0-.9.8-1.5,1.5-1.5h96.9M418.2,103.7h-96.9c-8.5,0-15.3,6.9-15.3,15.3v96.9c0,8.5,6.9,15.3,15.3,15.3h96.9c8.5,0,15.3-6.9,15.3-15.3v-96.9c0-8.5-6.9-15.3-15.3-15.3h0Z"/>
    <rect class="st5" x="396.6" y="143.1" width="26.3" height="11.3"/>
    <rect class="st5" x="395.8" y="178.7" width="27.1" height="13"/>
    <g class="st3">
      <g class="st3">
        <g class="st3">
          <text class="st4" transform="translate(543.1 194.5)"><tspan x="0" y="0">iG</tspan></text>
        </g>
      </g>
      <g class="st3">
        <g class="st3">
          <text class="st1" transform="translate(713 194.5)"><tspan x="0" y="0">ame</tspan></text>
        </g>
      </g>
    </g>
    <g class="st3">
      <g class="st3">
        <g class="st3">
          <path class="st0" d="M329,137.4c0-4.3,3.4-7.7,8.4-7.7s8.3,3.4,8.3,7.7-3.4,7.6-8.3,7.6-8.4-3.4-8.4-7.6ZM330.4,149.8h14.1v46.1h-14.1v-46.1Z"/>
          <path class="st0" d="M408.9,156.2h-15.6c-2.1-3.9-6.1-6-11.4-6-9.1,0-15.1,6.4-15.1,16.5s6.1,17,16.3,17,11.9-3.7,14-10.2h-17.9v-10.4h30.7v13.1c-3,10-12.6,20-27.9,20s-29.6-12.1-29.6-29.5,12.1-29.6,29.5-29.6,24,7.1,27,19Z"/>
        </g>
      </g>
    </g>
    <g class="st3">
      <g class="st3">
        <text class="st2" transform="translate(893 255.2)"><tspan x="0" y="0">Cloud</tspan></text>
      </g>
    </g>
  </g>
</svg>