<svg xmlns="http://www.w3.org/2000/svg" id="Layer_1" version="1.1" viewBox="0 0 1308.1 334.8"><defs><style>.st0{fill:#fff}.st3{isolation:isolate}.st5{fill:#3b82f6}</style></defs><path d="M313.4 13.6C305.6 13.6 299 20 299 28s3.4 10.6 8.3 12.8v33.7h11.9V41.1c4.9-2.1 8.4-7.2 8.4-13.1s-6.4-14.4-14.4-14.4zM440 28c0-7.8-6.4-14.4-14.4-14.4S411.2 20 411.2 28s3.4 10.6 8.4 13v33.6h11.9V41c4.9-2.1 8.4-7.2 8.4-13zM369.5 13.6c-7.8 0-14.4 6.4-14.4 14.4s3.4 10.6 8.4 13v33.6h11.9V41c4.9-2.1 8.4-7.2 8.4-13s-6.4-14.4-14.4-14.4zM313.4 321c-7.8 0-14.4-6.4-14.4-14.4s3.4-10.6 8.3-12.8v-33.7h11.9v33.4c4.9 2.1 8.4 7.2 8.4 13.1s-6.4 14.4-14.4 14.4zM440 306.7c0 7.8-6.4 14.4-14.4 14.4s-14.4-6.4-14.4-14.4 3.4-10.6 8.4-13v-33.6h11.9v33.6c4.9 2.1 8.4 7.2 8.4 13zM369.5 321c-7.8 0-14.4-6.4-14.4-14.4s3.4-10.6 8.4-13V260h11.9v33.6c4.9 2.1 8.4 7.2 8.4 13s-6.4 14.4-14.4 14.4zM522.3 223.7c0 7.8-6.4 14.4-14.4 14.4s-10.6-3.4-12.8-8.3h-33.7v-11.9h33.4c2.1-4.9 7.2-8.4 13.1-8.4s14.4 6.4 14.4 14.4zM507.9 97.1c7.8 0 14.4 6.4 14.4 14.4s-6.4 14.4-14.4 14.4-10.6-3.4-13-8.4h-33.6v-11.9h33.6c2.1-4.9 7.2-8.4 13-8.4ZM522.3 167.6c0 7.8-6.4 14.4-14.4 14.4s-10.6-3.4-13-8.4h-33.6v-11.9h33.6c2.1-4.9 7.2-8.4 13-8.4s14.4 6.4 14.4 14.4ZM217 223.7c0 7.8 6.4 14.4 14.4 14.4s10.6-3.4 12.8-8.3h33.7v-11.9h-33.4c-2.1-4.9-7.2-8.4-13.1-8.4s-14.4 6.4-14.4 14.4h-.1v-.2ZM231.2 97.1c-7.8 0-14.4 6.4-14.4 14.4s6.4 14.4 14.4 14.4 10.6-3.4 13-8.4h33.6v-11.9h-33.6c-2.1-4.9-7.2-8.4-13-8.4ZM217 167.6c0 7.8 6.4 14.4 14.4 14.4s10.6-3.4 13-8.4H278v-11.9h-33.6c-2.1-4.9-7.2-8.4-13-8.4s-14.4 6.4-14.4 14.4Z" class="st5"/><path d="M447.1 88.2c.9 0 1.5.8 1.5 1.5v154.9c0 .9-.8 1.5-1.5 1.5H292.2c-.9 0-1.5-.8-1.5-1.5V90.1c0-.9.8-1.5 1.5-1.5h154.9m0-14.2H292.2c-8.5 0-15.3 6.9-15.3 15.3v154.9c0 8.5 6.9 15.3 15.3 15.3h154.9c8.5 0 15.3-6.9 15.3-15.3V90.1c0-8.5-6.9-15.3-15.3-15.3v-.2Z" class="st5"/><path d="M418.2 117.3c.9 0 1.5.8 1.5 1.5v96.9c0 .9-.8 1.5-1.5 1.5h-96.9c-.9 0-1.5-.8-1.5-1.5v-96.9c0-.9.8-1.5 1.5-1.5zm0-13.6h-96.9c-8.5 0-15.3 6.9-15.3 15.3v96.9c0 8.5 6.9 15.3 15.3 15.3h96.9c8.5 0 15.3-6.9 15.3-15.3V119c0-8.5-6.9-15.3-15.3-15.3" class="st5"/><path d="M396.6 143.1h26.3v11.3h-26.3zM395.8 178.7h27.1v13h-27.1z" class="st5"/><g class="st3"><g class="st3"><text class="st3" style="isolation:isolate;font-family:Poppins-Bold,Poppins;font-weight:700;font-size:160.7px;fill:#3b82f6" transform="translate(543.1 194.5)"><tspan x="0" y="0">iG</tspan></text></g><g class="st3"><text class="st3" style="fill:#fff;isolation:isolate;font-family:Poppins-Bold,Poppins;font-weight:700;font-size:160.7px" transform="translate(713 194.5)"><tspan x="0" y="0">ame</tspan></text></g></g><g class="st3"><g class="st3"><g class="st3"><path d="M329 137.4c0-4.3 3.4-7.7 8.4-7.7s8.3 3.4 8.3 7.7-3.4 7.6-8.3 7.6-8.4-3.4-8.4-7.6m1.4 12.4h14.1v46.1h-14.1zM408.9 156.2h-15.6c-2.1-3.9-6.1-6-11.4-6-9.1 0-15.1 6.4-15.1 16.5s6.1 17 16.3 17 11.9-3.7 14-10.2h-17.9v-10.4h30.7v13.1c-3 10-12.6 20-27.9 20s-29.6-12.1-29.6-29.5 12.1-29.6 29.5-29.6 24 7.1 27 19Z" class="st0"/></g></g></g><g class="st3"><text class="st3" style="fill:#fff;isolation:isolate;font-family:Poppins-Bold,Poppins;font-weight:700;font-size:65px" transform="translate(893 255.2)"><tspan x="0" y="0">Cloud</tspan></text></g></svg>