<svg xmlns="http://www.w3.org/2000/svg" id="Layer_1" data-name="Layer 1" viewBox="0 0 1102.52 319.1">
  <defs>
    <style>
      .cls-1 {
        isolation: isolate;
      }

      .cls-2, .cls-3 {
        fill: #3b82f6;
      }

      .cls-3 {
        font-family: Helvetica-Bold, Helvetica;
        font-size: 190px;
        font-weight: 700;
      }
    </style>
  </defs>
  <g>
    <path class="cls-2" d="M100,0C91.8,0,85.2,6.6,85.2,14.8s3.5,11,8.5,13.3v34.8h12.4V28.2c5.1-2.3,8.7-7.6,8.7-13.4S108.2,0,100,0h-.1.1Z"/>
    <path class="cls-2" d="M231.6,14.8C231.6,6.6,225,0,216.8,0s-14.8,6.6-14.8,14.8,3.5,11.1,8.5,13.4v34.8h12.4V28.2c5-2.3,8.5-7.6,8.5-13.4h.2,0Z"/>
    <path class="cls-2" d="M158.5,0C150.3,0,143.7,6.6,143.7,14.8s3.5,11.1,8.5,13.4v34.8h12.4V28.2c5-2.3,8.5-7.6,8.5-13.4S166.5,0,158.3,0h.2,0Z"/>
  </g>
  <g>
    <path class="cls-2" d="M100,319.1c-8.2,0-14.8-6.6-14.8-14.8s3.5-11,8.5-13.3v-34.8h12.4v34.7c5.1,2.3,8.7,7.6,8.7,13.4s-6.6,14.8-14.8,14.8h-.1.1Z"/>
    <path class="cls-2" d="M231.6,304.3c0,8.2-6.6,14.8-14.8,14.8s-14.8-6.6-14.8-14.8,3.5-11.1,8.5-13.4v-34.8h12.4v34.8c5,2.3,8.5,7.6,8.5,13.4h.2,0Z"/>
    <path class="cls-2" d="M158.5,319.1c-8.2,0-14.8-6.6-14.8-14.8s3.5-11.1,8.5-13.4v-34.8h12.4v34.8c5,2.3,8.5,7.6,8.5,13.4s-6.6,14.8-14.8,14.8h.2,0Z"/>
  </g>
  <g>
    <path class="cls-2" d="M316.8,218.2c0,8.2-6.6,14.8-14.8,14.8s-11-3.5-13.3-8.5h-34.8v-12.4h34.7c2.3-5.1,7.6-8.7,13.4-8.7s14.8,6.6,14.8,14.8h0Z"/>
    <path class="cls-2" d="M302,86.6c8.2,0,14.8,6.6,14.8,14.8s-6.6,14.8-14.8,14.8-11.1-3.5-13.4-8.5h-34.8v-12.4h34.8c2.3-5,7.6-8.5,13.4-8.5v-.2Z"/>
    <path class="cls-2" d="M316.8,159.9c0,8.2-6.6,14.8-14.8,14.8s-11.1-3.5-13.4-8.5h-34.8v-12.4h34.8c2.3-5,7.6-8.5,13.4-8.5s14.8,6.6,14.8,14.8v-.2h0Z"/>
  </g>
  <g>
    <path class="cls-2" d="M0,218.2C0,226.4,6.6,233,14.8,233s11-3.5,13.3-8.5h34.8v-12.4H28.2c-2.3-5.1-7.6-8.7-13.4-8.7S0,210,0,218.2h0Z"/>
    <path class="cls-2" d="M14.8,86.6c-8.2,0-14.8,6.6-14.8,14.8s6.6,14.8,14.8,14.8,11.1-3.5,13.4-8.5h34.8v-12.4H28.2c-2.3-5-7.6-8.5-13.4-8.5v-.2Z"/>
    <path class="cls-2" d="M0,159.9C0,168.1,6.6,174.7,14.8,174.7s11.1-3.5,13.4-8.5h34.8v-12.4H28.2c-2.3-5-7.6-8.5-13.4-8.5s-14.8,6.6-14.8,14.8v-.2h0Z"/>
  </g>
  <path class="cls-2" d="M239,77.6c.9,0,1.6.7,1.6,1.6v160.7c0,.9-.7,1.6-1.6,1.6H78.3c-.9,0-1.6-.7-1.6-1.6V79c0-.9.7-1.6,1.6-1.6h160.7M239,63.3H78.3c-8.9,0-16,7.2-16,16v160.7c0,8.9,7.2,16,16,16h160.7c8.9,0,16-7.2,16-16V79.2c0-8.9-7.2-16-16-16h0v.1Z"/>
  <path class="cls-2" d="M208.9,107.6c.9,0,1.6.7,1.6,1.6v100.5c0,.9-.7,1.6-1.6,1.6h-100.5c-.9,0-1.6-.7-1.6-1.6v-100.5c0-.9.7-1.6,1.6-1.6h100.5M208.9,93.3h-100.5c-8.9,0-16,7.2-16,16v100.5c0,8.9,7.2,16,16,16h100.5c8.9,0,16-7.2,16-16v-100.5c0-8.9-7.2-16-16-16h0Z"/>
  <g class="cls-1">
    <g class="cls-1">
      <g class="cls-1">
        <g class="cls-1">
          <g class="cls-1">
            <g class="cls-1">
              <g class="cls-1">
                <g class="cls-1">
                  <path class="cls-2" d="M350.9,63.5c0-10,7.9-17.9,19.6-17.9s19.5,7.9,19.5,17.9-7.9,17.7-19.5,17.7-19.6-7.9-19.6-17.7ZM353.9,92.4h32.9v107.5h-32.9v-107.5Z"/>
                  <path class="cls-2" d="M536.9,107.5h-36.4c-5-9.1-14.3-13.9-26.6-13.9-21.2,0-35.2,15-35.2,38.5s14.3,39.7,37.9,39.7,27.7-8.7,32.7-23.9h-41.8v-24.3h71.6v30.6c-6.9,23.3-29.5,46.6-65.1,46.6s-68.9-28.3-68.9-68.8,28.3-68.9,68.8-68.9,55.9,16.6,63,44.3v.1Z"/>
                  <path class="cls-2" d="M598.3,90.9c16,0,27.3,7.3,33.1,16.8v-15.2h32.9v107.5h-32.9v-15.2c-6,9.4-17.3,16.8-33.3,16.8-26.2,0-47.2-21.6-47.2-55.5s21-55.1,47.4-55.1v-.1ZM608,119.6c-12.3,0-23.5,9.2-23.5,26.4s11.2,26.8,23.5,26.8,23.5-9.4,23.5-26.6-11-26.6-23.5-26.6h0Z"/>
                  <path class="cls-2" d="M836.4,141.5c0-14.1-8.1-21.8-20.6-21.8s-20.6,7.7-20.6,21.8v58.4h-32.7v-58.4c0-14.1-8.1-21.8-20.6-21.8s-20.6,7.7-20.6,21.8v58.4h-32.9v-107.5h32.9v13.5c6.4-8.7,17.3-14.6,31.4-14.6s29.3,7.1,36.6,20c7.1-11.4,20.6-20,36.2-20,26.6,0,43.7,16.9,43.7,45.8v62.8h-32.7v-58.4h-.1Z"/>
                  <path class="cls-2" d="M938.8,174.5c-10.6,0-19.2-6.5-20.4-20.6h74.5c.05-.43.1-.32.15.11.14-.09.29-.16.44-.23,0-2.39,0-5.48,0-9.47,0-32.7-21.5-53.5-53.5-53.5s-54.3,21.2-54.3,55.3,22.7,55.3,54.3,55.3v-.1c26.7,0,45.8-16.2,51-37.2h-35.1c-2.7,5.8-6.5,10.4-17.1,10.4ZM939.6,117.3c11,0,20.2,6.8,20.2,18.5h-41.2c1.9-12,10-18.5,21-18.5Z"/>
                </g>
              </g>
            </g>
          </g>
        </g>
      </g>
    </g>
    <text class="cls-3" transform="translate(996.85 197.82)"><tspan x="0" y="0">s</tspan></text>
  </g>
  <g class="cls-1">
    <g class="cls-1">
      <g class="cls-1">
        <path class="cls-2" d="M890.85,212.8c13,0,22.8,7.3,25.9,19.2h-14.6c-2.3-4.7-6.4-7-11.5-7-8.2,0-13.8,6.1-13.8,15.7s5.6,15.7,13.8,15.7,9.2-2.3,11.5-7h14.6c-3.1,11.8-12.9,19.1-25.9,19.1s-27.5-11.5-27.5-27.8,11.4-27.9,27.5-27.9h0Z"/>
        <path class="cls-2" d="M924.95,210.4h13.3v57.6h-13.3v-57.6h0Z"/>
        <path class="cls-2" d="M967.75,268.7c-12.8,0-22.4-8.6-22.4-22.4s9.9-22.4,22.6-22.4,22.6,8.6,22.6,22.4-10,22.4-22.7,22.4h-.1ZM967.75,257.2c4.8,0,9.2-3.5,9.2-10.8s-4.4-10.8-9-10.8-9,3.4-9,10.8,4.1,10.8,8.9,10.8h-.1Z"/>
        <path class="cls-2" d="M1040.45,268.1h-13.3v-5.9c-2.6,3.7-7.3,6.4-13.2,6.4-10,0-16.8-6.9-16.8-18.5v-25.4h13.2v23.6c0,5.9,3.3,9.2,8.3,9.2s8.4-3.3,8.4-9.2v-23.6h13.3v43.5h0l.1-.1Z"/>
        <path class="cls-2" d="M1066.55,224c5.8,0,10.7,2.6,13.4,6.6v-20.2h13.3v57.6h-13.3v-6.2c-2.4,4-7,6.9-13.4,6.9-10.7,0-19.2-8.7-19.2-22.4s8.5-22.3,19.2-22.3ZM1070.45,235.6c-5,0-9.5,3.7-9.5,10.7s4.5,10.8,9.5,10.8,9.5-3.8,9.5-10.7-4.4-10.7-9.5-10.7h0v-.1Z"/>
      </g>
    </g>
  </g>
  <g>
    <rect class="cls-2" x="118.6" y="142.4" width="16.1" height="48.1"/>
    <path class="cls-2" d="M126.7,122.3c-5.4,0-9.4,3.8-9.4,8.7s4,8.6,9.4,8.6,9.3-3.6,9.3-8.6-3.9-8.7-9.3-8.7Z"/>
    <path class="cls-2" d="M167.3,155.8v12.4h17.5c-2.2,5.4-2.9,8.2-12.6,8.2s-15.3-6.6-15.3-16,5.5-15.5,14.1-15.5,8.5,1.8,10.5,5.4l.3.5h17.5l-.3-1.2c-3.2-12.4-10-19.8-28-19.8s-30.5,12.6-30.5,30.6,12.6,30.5,30.6,30.5,25.8-10.4,28.9-20.7v-14.4h-32.7Z"/>
  </g>
</svg>