<?xml version="1.0" encoding="UTF-8"?>
<svg id="Layer_1" xmlns="http://www.w3.org/2000/svg" version="1.1" viewBox="0 0 1308.1 334.8">
  <!-- Generator: Adobe Illustrator 29.7.0, SVG Export Plug-In . SVG Version: 2.1.1 Build 138)  -->
  <defs>
    <style>
      .st0, .st1, .st2, .st3 {
        isolation: isolate;
      }

      .st0, .st4 {
        display: none;
      }

      .st5, .st1 {
        fill: #fff;
      }

      .st1, .st3 {
        font-family: BruceForever-Regular, 'Bruce Forever';
        font-size: 93.1px;
      }

      .st6, .st3 {
        fill: #3b82f6;
      }
    </style>
  </defs>
  <g class="st4">
    <g class="st0">
      <g class="st0">
        <g class="st0">
          <g class="st0">
            <g class="st0">
              <g class="st0">
                <g class="st0">
                  <g class="st0">
                    <text class="st3" transform="translate(1458.4 458.1)"><tspan x="0" y="0">IG</tspan></text>
                  </g>
                </g>
              </g>
            </g>
          </g>
        </g>
      </g>
      <g class="st0">
        <g class="st0">
          <g class="st0">
            <g class="st0">
              <g class="st0">
                <g class="st0">
                  <g class="st0">
                    <text class="st1" transform="translate(1580.3 458.1)"><tspan x="0" y="0">aming</tspan></text>
                  </g>
                </g>
              </g>
            </g>
          </g>
        </g>
      </g>
    </g>
    <g>
      <g>
        <path class="st6" d="M1322.4,342.7c-4.6,0-8.2,3.7-8.2,8.2s1.9,6.1,4.7,7.4v19.4h6.9v-19.3c2.9-1.3,4.9-4.2,4.9-7.5s-3.7-8.2-8.2-8.2h-.1Z"/>
        <path class="st6" d="M1395.5,351c0-4.6-3.7-8.2-8.2-8.2s-8.2,3.7-8.2,8.2,2,6.2,4.8,7.5v19.4h6.9v-19.4c2.8-1.3,4.8-4.1,4.8-7.5h-.1Z"/>
        <path class="st6" d="M1354.8,342.7c-4.6,0-8.2,3.7-8.2,8.2s2,6.2,4.8,7.5v19.4h6.9v-19.4c2.8-1.3,4.8-4.1,4.8-7.5s-3.7-8.2-8.2-8.2h-.1Z"/>
      </g>
      <g>
        <path class="st6" d="M1322.4,519.9c-4.6,0-8.2-3.7-8.2-8.2s1.9-6.1,4.7-7.4v-19.4h6.9v19.3c2.9,1.3,4.9,4.2,4.9,7.5s-3.7,8.2-8.2,8.2h-.1Z"/>
        <path class="st6" d="M1395.5,511.7c0,4.6-3.7,8.2-8.2,8.2s-8.2-3.7-8.2-8.2,2-6.2,4.8-7.5v-19.4h6.9v19.4c2.8,1.3,4.8,4.1,4.8,7.5h-.1Z"/>
        <path class="st6" d="M1354.8,519.9c-4.6,0-8.2-3.7-8.2-8.2s2-6.2,4.8-7.5v-19.4h6.9v19.4c2.8,1.3,4.8,4.1,4.8,7.5s-3.7,8.2-8.2,8.2h-.1Z"/>
      </g>
      <g>
        <path class="st6" d="M1442.8,463.9c0,4.6-3.7,8.2-8.2,8.2s-6.1-1.9-7.4-4.7h-19.4v-6.9h19.3c1.3-2.9,4.2-4.9,7.5-4.9s8.2,3.7,8.2,8.2h0Z"/>
        <path class="st6" d="M1434.6,390.8c4.6,0,8.2,3.7,8.2,8.2s-3.7,8.2-8.2,8.2-6.2-2-7.5-4.8h-19.4v-6.9h19.4c1.3-2.8,4.1-4.8,7.5-4.8h0Z"/>
        <path class="st6" d="M1442.8,431.4c0,4.6-3.7,8.2-8.2,8.2s-6.2-2-7.5-4.8h-19.4v-6.9h19.4c1.3-2.8,4.1-4.8,7.5-4.8s8.2,3.7,8.2,8.2h0Z"/>
      </g>
      <g>
        <path class="st6" d="M1266.8,463.9c0,4.6,3.7,8.2,8.2,8.2s6.1-1.9,7.4-4.7h19.4v-6.9h-19.3c-1.3-2.9-4.2-4.9-7.5-4.9s-8.2,3.7-8.2,8.2h0Z"/>
        <path class="st6" d="M1275,390.8c-4.6,0-8.2,3.7-8.2,8.2s3.7,8.2,8.2,8.2,6.2-2,7.5-4.8h19.4v-6.9h-19.4c-1.3-2.8-4.1-4.8-7.5-4.8h0Z"/>
        <path class="st6" d="M1266.8,431.4c0,4.6,3.7,8.2,8.2,8.2s6.2-2,7.5-4.8h19.4v-6.9h-19.4c-1.3-2.8-4.1-4.8-7.5-4.8s-8.2,3.7-8.2,8.2h0Z"/>
      </g>
      <path class="st6" d="M1399.6,385.8c.5,0,.9.4.9.9v89.3c0,.5-.4.9-.9.9h-89.3c-.5,0-.9-.4-.9-.9v-89.3c0-.5.4-.9.9-.9h89.3M1399.6,377.8h-89.3c-4.9,0-8.9,4-8.9,8.9v89.3c0,4.9,4,8.9,8.9,8.9h89.3c4.9,0,8.9-4,8.9-8.9v-89.3c0-4.9-4-8.9-8.9-8.9h0Z"/>
      <path class="st6" d="M1382.8,402.5c.5,0,.9.4.9.9v55.8c0,.5-.4.9-.9.9h-55.8c-.5,0-.9-.4-.9-.9v-55.8c0-.5.4-.9.9-.9h55.8M1382.8,394.5h-55.8c-4.9,0-8.9,4-8.9,8.9v55.8c0,4.9,4,8.9,8.9,8.9h55.8c4.9,0,8.9-4,8.9-8.9v-55.8c0-4.9-4-8.9-8.9-8.9h0Z"/>
      <rect class="st6" x="1370.4" y="417.3" width="15.1" height="6.5"/>
      <rect class="st6" x="1369.9" y="437.9" width="15.6" height="7.5"/>
      <g>
        <path class="st5" d="M1330,417.4h8.5v28h-8.5v-28Z"/>
        <path class="st5" d="M1352.6,423.6v15.5h15.6v-4.8h-5.8l-5.7-5.7h20v10.5l-6.2,6.3h-19.9l-6.4-6.3v-15.3l6.4-6.4h27.1l-6.2,6.3h-18.9Z"/>
      </g>
    </g>
  </g>
  <g>
    <path class="st6" d="M208.3,10.8c-8.2,0-14.8,6.6-14.8,14.8s3.5,11,8.5,13.3v34.8h12.4v-34.7c5.1-2.3,8.7-7.6,8.7-13.4s-6.6-14.8-14.8-14.8h-.1.1Z"/>
    <path class="st6" d="M339.9,25.6c0-8.2-6.6-14.8-14.8-14.8s-14.8,6.6-14.8,14.8,3.5,11.1,8.5,13.4v34.8h12.4v-34.8c5-2.3,8.5-7.6,8.5-13.4h.2,0Z"/>
    <path class="st6" d="M266.8,10.8c-8.2,0-14.8,6.6-14.8,14.8s3.5,11.1,8.5,13.4v34.8h12.4v-34.8c5-2.3,8.5-7.6,8.5-13.4s-6.6-14.8-14.8-14.8h.2,0Z"/>
  </g>
  <g>
    <path class="st6" d="M208.3,329.9c-8.2,0-14.8-6.6-14.8-14.8s3.5-11,8.5-13.3v-34.8h12.4v34.7c5.1,2.3,8.7,7.6,8.7,13.4s-6.6,14.8-14.8,14.8h-.1.1Z"/>
    <path class="st6" d="M339.9,315.1c0,8.2-6.6,14.8-14.8,14.8s-14.8-6.6-14.8-14.8,3.5-11.1,8.5-13.4v-34.8h12.4v34.8c5,2.3,8.5,7.6,8.5,13.4h.2,0Z"/>
    <path class="st6" d="M266.8,329.9c-8.2,0-14.8-6.6-14.8-14.8s3.5-11.1,8.5-13.4v-34.8h12.4v34.8c5,2.3,8.5,7.6,8.5,13.4s-6.6,14.8-14.8,14.8h.2,0Z"/>
  </g>
  <g>
    <path class="st6" d="M425.1,229c0,8.2-6.6,14.8-14.8,14.8s-11-3.5-13.3-8.5h-34.8v-12.4h34.7c2.3-5.1,7.6-8.7,13.4-8.7s14.8,6.6,14.8,14.8h0Z"/>
    <path class="st6" d="M410.3,97.4c8.2,0,14.8,6.6,14.8,14.8s-6.6,14.8-14.8,14.8-11.1-3.5-13.4-8.5h-34.8v-12.4h34.8c2.3-5,7.6-8.5,13.4-8.5v-.2Z"/>
    <path class="st6" d="M425.1,170.7c0,8.2-6.6,14.8-14.8,14.8s-11.1-3.5-13.4-8.5h-34.8v-12.4h34.8c2.3-5,7.6-8.5,13.4-8.5s14.8,6.6,14.8,14.8v-.2h0Z"/>
  </g>
  <g>
    <path class="st6" d="M108.3,229c0,8.2,6.6,14.8,14.8,14.8s11-3.5,13.3-8.5h34.8v-12.4h-34.7c-2.3-5.1-7.6-8.7-13.4-8.7s-14.8,6.6-14.8,14.8h0Z"/>
    <path class="st6" d="M123.1,97.4c-8.2,0-14.8,6.6-14.8,14.8s6.6,14.8,14.8,14.8,11.1-3.5,13.4-8.5h34.8v-12.4h-34.8c-2.3-5-7.6-8.5-13.4-8.5v-.2Z"/>
    <path class="st6" d="M108.3,170.7c0,8.2,6.6,14.8,14.8,14.8s11.1-3.5,13.4-8.5h34.8v-12.4h-34.8c-2.3-5-7.6-8.5-13.4-8.5s-14.8,6.6-14.8,14.8v-.2h0Z"/>
  </g>
  <path class="st6" d="M347.3,88.4c.9,0,1.6.7,1.6,1.6v160.7c0,.9-.7,1.6-1.6,1.6h-160.7c-.9,0-1.6-.7-1.6-1.6V89.8c0-.9.7-1.6,1.6-1.6h160.7M347.3,74.1h-160.7c-8.9,0-16,7.2-16,16v160.7c0,8.9,7.2,16,16,16h160.7c8.9,0,16-7.2,16-16V90c0-8.9-7.2-16-16-16h0Z"/>
  <path class="st6" d="M317.2,118.4c.9,0,1.6.7,1.6,1.6v100.5c0,.9-.7,1.6-1.6,1.6h-100.5c-.9,0-1.6-.7-1.6-1.6v-100.5c0-.9.7-1.6,1.6-1.6h100.5M317.2,104.1h-100.5c-8.9,0-16,7.2-16,16v100.5c0,8.9,7.2,16,16,16h100.5c8.9,0,16-7.2,16-16v-100.5c0-8.9-7.2-16-16-16h0Z"/>
  <g class="st2">
    <g class="st2">
      <g class="st2">
        <g class="st2">
          <g class="st2">
            <g class="st2">
              <g class="st2">
                <g class="st2">
                  <path class="st6" d="M459.2,74.3c0-10,7.9-17.9,19.6-17.9s19.5,7.9,19.5,17.9-7.9,17.7-19.5,17.7-19.6-7.9-19.6-17.7ZM462.2,103.2h32.9v107.5h-32.9v-107.5Z"/>
                  <path class="st6" d="M645.2,118.3h-36.4c-5-9.1-14.3-13.9-26.6-13.9-21.2,0-35.2,15-35.2,38.5s14.3,39.7,37.9,39.7,27.7-8.7,32.7-23.9h-41.8v-24.3h71.6v30.6c-6.9,23.3-29.5,46.6-65.1,46.6s-68.9-28.3-68.9-68.8,28.3-68.9,68.8-68.9,55.9,16.6,63,44.3Z"/>
                  <path class="st6" d="M706.6,101.7c16,0,27.3,7.3,33.1,16.8v-15.2h32.9v107.5h-32.9v-15.2c-6,9.4-17.3,16.8-33.3,16.8-26.2,0-47.2-21.6-47.2-55.5s21-55.1,47.4-55.1ZM716.3,130.4c-12.3,0-23.5,9.2-23.5,26.4s11.2,26.8,23.5,26.8,23.5-9.4,23.5-26.6-11-26.6-23.5-26.6Z"/>
                  <path class="st6" d="M944.7,152.3c0-14.1-8.1-21.8-20.6-21.8s-20.6,7.7-20.6,21.8v58.4h-32.7v-58.4c0-14.1-8.1-21.8-20.6-21.8s-20.6,7.7-20.6,21.8v58.4h-32.9v-107.5h32.9v13.5c6.4-8.7,17.3-14.6,31.4-14.6s29.3,7.1,36.6,20c7.1-11.4,20.6-20,36.2-20,26.6,0,43.7,16.9,43.7,45.8v62.8h-32.7v-58.4Z"/>
                  <path class="st6" d="M1048.3,212.2c-31.6,0-54.3-21.2-54.3-55.3s22.3-55.3,54.3-55.3,53.5,20.8,53.5,53.5-.2,6.4-.6,9.6h-74.5c1.2,14.1,9.8,20.6,20.4,20.6s14.4-4.6,17.1-10.4h35.1c-5.2,21-24.3,37.2-51,37.2ZM1026.9,146.6h41.2c0-11.7-9.2-18.5-20.2-18.5s-19.1,6.5-21,18.5Z"/>
                </g>
              </g>
            </g>
          </g>
        </g>
      </g>
    </g>
  </g>
  <g class="st2">
    <g class="st2">
      <g class="st2">
        <path class="st6" d="M897.5,223.6c13,0,22.8,7.3,25.9,19.2h-14.6c-2.3-4.7-6.4-7-11.5-7-8.2,0-13.8,6.1-13.8,15.7s5.6,15.7,13.8,15.7,9.2-2.3,11.5-7h14.6c-3.1,11.8-12.9,19.1-25.9,19.1s-27.5-11.5-27.5-27.8,11.4-27.9,27.5-27.9h0Z"/>
        <path class="st6" d="M931.6,221.2h13.3v57.6h-13.3v-57.6h0Z"/>
        <path class="st6" d="M974.4,279.5c-12.8,0-22.4-8.6-22.4-22.4s9.9-22.4,22.6-22.4,22.6,8.6,22.6,22.4-10,22.4-22.7,22.4h0ZM974.4,268c4.8,0,9.2-3.5,9.2-10.8s-4.4-10.8-9-10.8-9,3.4-9,10.8,4.1,10.8,8.9,10.8h-.1Z"/>
        <path class="st6" d="M1047.1,278.9h-13.3v-5.9c-2.6,3.7-7.3,6.4-13.2,6.4-10,0-16.8-6.9-16.8-18.5v-25.4h13.2v23.6c0,5.9,3.3,9.2,8.3,9.2s8.4-3.3,8.4-9.2v-23.6h13.3v43.5h0Z"/>
        <path class="st6" d="M1073.2,234.8c5.8,0,10.7,2.6,13.4,6.6v-20.2h13.3v57.6h-13.3v-6.2c-2.4,4-7,6.9-13.4,6.9-10.7,0-19.2-8.7-19.2-22.4s8.5-22.3,19.2-22.3ZM1077.1,246.4c-5,0-9.5,3.7-9.5,10.7s4.5,10.8,9.5,10.8,9.5-3.8,9.5-10.7-4.4-10.7-9.5-10.7h0Z"/>
      </g>
    </g>
  </g>
  <g>
    <rect class="st6" x="226.9" y="153.2" width="16.1" height="48.1"/>
    <path class="st6" d="M235,133.1c-5.4,0-9.4,3.8-9.4,8.7s4,8.6,9.4,8.6,9.3-3.6,9.3-8.6-3.9-8.7-9.3-8.7Z"/>
    <path class="st6" d="M275.6,166.6v12.4h17.5c-2.2,5.4-2.9,8.2-12.6,8.2s-15.3-6.6-15.3-16,5.5-15.5,14.1-15.5,8.5,1.8,10.5,5.4l.3.5h17.5l-.3-1.2c-3.2-12.4-10-19.8-28-19.8s-30.5,12.6-30.5,30.6,12.6,30.5,30.6,30.5,25.8-10.4,28.9-20.7v-14.4h-32.7Z"/>
  </g>
</svg>