<svg xmlns="http://www.w3.org/2000/svg" id="Layer_1" version="1.1" viewBox="108.3 10.8 991.6 319.1">
  <!-- Generator: Adobe Illustrator 29.6.1, SVG Export Plug-In . SVG Version: 2.1.1 Build 9)  -->
  <defs>
    <style>
      .st0 {
        font-family: Poppins-Bold, Poppins;
        font-size: 192.6px;
        font-weight: 700;
      }

      .st0, .st1, .st2, .st3, .st4 {
        isolation: isolate;
      }

      .st0, .st5, .st4 {
        fill: #3b82f6;
      }

      .st1, .st6 {
        display: none;
      }

      .st7, .st2 {
        fill: #fff;
      }

      .st2, .st4 {
        font-family: BruceForever-Regular, 'Bruce Forever';
        font-size: 93.1px;
      }
    </style>
  </defs>
  <g class="st6">
    <g class="st1">
      <g class="st1">
        <g class="st1">
          <g class="st1">
            <g class="st1">
              <text class="st4" transform="translate(1458.4 458.1)"><tspan x="0" y="0">IG</tspan></text>
            </g>
          </g>
        </g>
      </g>
      <g class="st1">
        <g class="st1">
          <g class="st1">
            <g class="st1">
              <text class="st2" transform="translate(1580.3 458.1)"><tspan x="0" y="0">aming</tspan></text>
            </g>
          </g>
        </g>
      </g>
    </g>
    <g>
      <g>
        <path class="st5" d="M1322.4,342.7c-4.6,0-8.2,3.7-8.2,8.2s1.9,6.1,4.7,7.4v19.4h6.9v-19.3c2.9-1.3,4.9-4.2,4.9-7.5s-3.7-8.2-8.2-8.2h-.1Z"/>
        <path class="st5" d="M1395.5,351c0-4.6-3.7-8.2-8.2-8.2s-8.2,3.7-8.2,8.2,2,6.2,4.8,7.5v19.4h6.9v-19.4c2.8-1.3,4.8-4.1,4.8-7.5h-.1Z"/>
        <path class="st5" d="M1354.8,342.7c-4.6,0-8.2,3.7-8.2,8.2s2,6.2,4.8,7.5v19.4h6.9v-19.4c2.8-1.3,4.8-4.1,4.8-7.5s-3.7-8.2-8.2-8.2h-.1Z"/>
      </g>
      <g>
        <path class="st5" d="M1322.4,519.9c-4.6,0-8.2-3.7-8.2-8.2s1.9-6.1,4.7-7.4v-19.4h6.9v19.3c2.9,1.3,4.9,4.2,4.9,7.5s-3.7,8.2-8.2,8.2h-.1Z"/>
        <path class="st5" d="M1395.5,511.7c0,4.6-3.7,8.2-8.2,8.2s-8.2-3.7-8.2-8.2,2-6.2,4.8-7.5v-19.4h6.9v19.4c2.8,1.3,4.8,4.1,4.8,7.5h-.1Z"/>
        <path class="st5" d="M1354.8,519.9c-4.6,0-8.2-3.7-8.2-8.2s2-6.2,4.8-7.5v-19.4h6.9v19.4c2.8,1.3,4.8,4.1,4.8,7.5s-3.7,8.2-8.2,8.2h-.1Z"/>
      </g>
      <g>
        <path class="st5" d="M1442.8,463.9c0,4.6-3.7,8.2-8.2,8.2s-6.1-1.9-7.4-4.7h-19.4v-6.9h19.3c1.3-2.9,4.2-4.9,7.5-4.9s8.2,3.7,8.2,8.2h0Z"/>
        <path class="st5" d="M1434.6,390.8c4.6,0,8.2,3.7,8.2,8.2s-3.7,8.2-8.2,8.2-6.2-2-7.5-4.8h-19.4v-6.9h19.4c1.3-2.8,4.1-4.8,7.5-4.8h0Z"/>
        <path class="st5" d="M1442.8,431.4c0,4.6-3.7,8.2-8.2,8.2s-6.2-2-7.5-4.8h-19.4v-6.9h19.4c1.3-2.8,4.1-4.8,7.5-4.8s8.2,3.7,8.2,8.2h0Z"/>
      </g>
      <g>
        <path class="st5" d="M1266.8,463.9c0,4.6,3.7,8.2,8.2,8.2s6.1-1.9,7.4-4.7h19.4v-6.9h-19.3c-1.3-2.9-4.2-4.9-7.5-4.9s-8.2,3.7-8.2,8.2h0Z"/>
        <path class="st5" d="M1275,390.8c-4.6,0-8.2,3.7-8.2,8.2s3.7,8.2,8.2,8.2,6.2-2,7.5-4.8h19.4v-6.9h-19.4c-1.3-2.8-4.1-4.8-7.5-4.8h0Z"/>
        <path class="st5" d="M1266.8,431.4c0,4.6,3.7,8.2,8.2,8.2s6.2-2,7.5-4.8h19.4v-6.9h-19.4c-1.3-2.8-4.1-4.8-7.5-4.8s-8.2,3.7-8.2,8.2h0Z"/>
      </g>
      <path class="st5" d="M1399.6,385.8c.5,0,.9.4.9.9v89.3c0,.5-.4.9-.9.9h-89.3c-.5,0-.9-.4-.9-.9v-89.3c0-.5.4-.9.9-.9h89.3M1399.6,377.8h-89.3c-4.9,0-8.9,4-8.9,8.9v89.3c0,4.9,4,8.9,8.9,8.9h89.3c4.9,0,8.9-4,8.9-8.9v-89.3c0-4.9-4-8.9-8.9-8.9h0Z"/>
      <path class="st5" d="M1382.8,402.5c.5,0,.9.4.9.9v55.8c0,.5-.4.9-.9.9h-55.8c-.5,0-.9-.4-.9-.9v-55.8c0-.5.4-.9.9-.9h55.8M1382.8,394.5h-55.8c-4.9,0-8.9,4-8.9,8.9v55.8c0,4.9,4,8.9,8.9,8.9h55.8c4.9,0,8.9-4,8.9-8.9v-55.8c0-4.9-4-8.9-8.9-8.9h0Z"/>
      <rect class="st5" x="1370.4" y="417.3" width="15.1" height="6.5"/>
      <rect class="st5" x="1369.9" y="437.9" width="15.6" height="7.5"/>
      <g>
        <path class="st7" d="M1330,417.4h8.5v28h-8.5v-28Z"/>
        <path class="st7" d="M1352.6,423.6v15.5h15.6v-4.8h-5.8l-5.7-5.7h20v10.5l-6.2,6.3h-19.9l-6.4-6.3v-15.3l6.4-6.4h27.1l-6.2,6.3h-18.9Z"/>
      </g>
    </g>
  </g>
  <g>
    <path class="st5" d="M208.3,10.8c-8.2,0-14.8,6.6-14.8,14.8s3.5,11,8.5,13.3v34.8h12.4v-34.7c5.1-2.3,8.7-7.6,8.7-13.4s-6.6-14.8-14.8-14.8h-.1.1Z"/>
    <path class="st5" d="M339.9,25.6c0-8.2-6.6-14.8-14.8-14.8s-14.8,6.6-14.8,14.8,3.5,11.1,8.5,13.4v34.8h12.4v-34.8c5-2.3,8.5-7.6,8.5-13.4h.2,0Z"/>
    <path class="st5" d="M266.8,10.8c-8.2,0-14.8,6.6-14.8,14.8s3.5,11.1,8.5,13.4v34.8h12.4v-34.8c5-2.3,8.5-7.6,8.5-13.4s-6.6-14.8-14.8-14.8h.2,0Z"/>
  </g>
  <g>
    <path class="st5" d="M208.3,329.9c-8.2,0-14.8-6.6-14.8-14.8s3.5-11,8.5-13.3v-34.8h12.4v34.7c5.1,2.3,8.7,7.6,8.7,13.4s-6.6,14.8-14.8,14.8h-.1.1Z"/>
    <path class="st5" d="M339.9,315.1c0,8.2-6.6,14.8-14.8,14.8s-14.8-6.6-14.8-14.8,3.5-11.1,8.5-13.4v-34.8h12.4v34.8c5,2.3,8.5,7.6,8.5,13.4h.2,0Z"/>
    <path class="st5" d="M266.8,329.9c-8.2,0-14.8-6.6-14.8-14.8s3.5-11.1,8.5-13.4v-34.8h12.4v34.8c5,2.3,8.5,7.6,8.5,13.4s-6.6,14.8-14.8,14.8h.2,0Z"/>
  </g>
  <g>
    <path class="st5" d="M425.1,229c0,8.2-6.6,14.8-14.8,14.8s-11-3.5-13.3-8.5h-34.8v-12.4h34.7c2.3-5.1,7.6-8.7,13.4-8.7s14.8,6.6,14.8,14.8h0Z"/>
    <path class="st5" d="M410.3,97.4c8.2,0,14.8,6.6,14.8,14.8s-6.6,14.8-14.8,14.8-11.1-3.5-13.4-8.5h-34.8v-12.4h34.8c2.3-5,7.6-8.5,13.4-8.5v-.2Z"/>
    <path class="st5" d="M425.1,170.7c0,8.2-6.6,14.8-14.8,14.8s-11.1-3.5-13.4-8.5h-34.8v-12.4h34.8c2.3-5,7.6-8.5,13.4-8.5s14.8,6.6,14.8,14.8v-.2h0Z"/>
  </g>
  <g>
    <path class="st5" d="M108.3,229c0,8.2,6.6,14.8,14.8,14.8s11-3.5,13.3-8.5h34.8v-12.4h-34.7c-2.3-5.1-7.6-8.7-13.4-8.7s-14.8,6.6-14.8,14.8h0Z"/>
    <path class="st5" d="M123.1,97.4c-8.2,0-14.8,6.6-14.8,14.8s6.6,14.8,14.8,14.8,11.1-3.5,13.4-8.5h34.8v-12.4h-34.8c-2.3-5-7.6-8.5-13.4-8.5v-.2Z"/>
    <path class="st5" d="M108.3,170.7c0,8.2,6.6,14.8,14.8,14.8s11.1-3.5,13.4-8.5h34.8v-12.4h-34.8c-2.3-5-7.6-8.5-13.4-8.5s-14.8,6.6-14.8,14.8v-.2h0Z"/>
  </g>
  <path class="st5" d="M347.3,88.4c.9,0,1.6.7,1.6,1.6v160.7c0,.9-.7,1.6-1.6,1.6h-160.7c-.9,0-1.6-.7-1.6-1.6V89.8c0-.9.7-1.6,1.6-1.6h160.7M347.3,74.1h-160.7c-8.9,0-16,7.2-16,16v160.7c0,8.9,7.2,16,16,16h160.7c8.9,0,16-7.2,16-16V90c0-8.9-7.2-16-16-16h0Z"/>
  <path class="st5" d="M317.2,118.4c.9,0,1.6.7,1.6,1.6v100.5c0,.9-.7,1.6-1.6,1.6h-100.5c-.9,0-1.6-.7-1.6-1.6v-100.5c0-.9.7-1.6,1.6-1.6h100.5M317.2,104.1h-100.5c-8.9,0-16,7.2-16,16v100.5c0,8.9,7.2,16,16,16h100.5c8.9,0,16-7.2,16-16v-100.5c0-8.9-7.2-16-16-16h0Z"/>
  <rect class="st5" x="294.8" y="145.1" width="27.2" height="11.7"/>
  <rect class="st5" x="293.8" y="182.1" width="28.2" height="13.4"/>
  <g class="st3">
    <g class="st3">
      <g class="st3">
        <g class="st3">
          <text class="st0" transform="translate(450.3 210.7)"><tspan x="0" y="0">iGame</tspan></text>
        </g>
      </g>
    </g>
  </g>
  <g class="st3">
    <g class="st3">
      <g class="st3">
        <path class="st5" d="M897.5,223.6c13,0,22.8,7.3,25.9,19.2h-14.6c-2.3-4.7-6.4-7-11.5-7-8.2,0-13.8,6.1-13.8,15.7s5.6,15.7,13.8,15.7,9.2-2.3,11.5-7h14.6c-3.1,11.8-12.9,19.1-25.9,19.1s-27.5-11.5-27.5-27.8,11.4-27.9,27.5-27.9Z"/>
        <path class="st5" d="M931.6,221.2h13.3v57.6h-13.3v-57.6Z"/>
        <path class="st5" d="M974.4,279.5c-12.8,0-22.4-8.6-22.4-22.4s9.9-22.4,22.6-22.4,22.6,8.6,22.6,22.4-10,22.4-22.7,22.4ZM974.4,268c4.8,0,9.2-3.5,9.2-10.8s-4.4-10.8-9-10.8-9,3.4-9,10.8,4.1,10.8,8.9,10.8Z"/>
        <path class="st5" d="M1047.1,278.9h-13.3v-5.9c-2.6,3.7-7.3,6.4-13.2,6.4-10,0-16.8-6.9-16.8-18.5v-25.4h13.2v23.6c0,5.9,3.3,9.2,8.3,9.2s8.4-3.3,8.4-9.2v-23.6h13.3v43.5Z"/>
        <path class="st5" d="M1073.2,234.8c5.8,0,10.7,2.6,13.4,6.6v-20.2h13.3v57.6h-13.3v-6.2c-2.4,4-7,6.9-13.4,6.9-10.7,0-19.2-8.7-19.2-22.4s8.5-22.3,19.2-22.3ZM1077.1,246.4c-5,0-9.5,3.7-9.5,10.7s4.5,10.8,9.5,10.8,9.5-3.8,9.5-10.7-4.4-10.7-9.5-10.7Z"/>
      </g>
    </g>
  </g>
  <g class="st3">
    <g class="st3">
      <g class="st3">
        <g>
          <path class="st7" d="M226.5,141.8c0-4.3,3.4-7.7,8.4-7.7s8.3,3.4,8.3,7.7-3.4,7.6-8.3,7.6-8.4-3.4-8.4-7.6ZM227.9,154.2h14.1v46.1h-14.1v-46.1Z"/>
          <path class="st5" d="M243,201.3h-16.1v-48.1h16.1v48.1ZM228.9,199.3h12.1v-44.1h-12.1v44.1ZM235,150.4c-5.4,0-9.4-3.7-9.4-8.6s4-8.7,9.4-8.7,9.3,3.7,9.3,8.7-4,8.6-9.3,8.6ZM235,135.1c-4.3,0-7.4,2.8-7.4,6.7s3.1,6.6,7.4,6.6,7.3-2.8,7.3-6.6-3.1-6.7-7.3-6.7Z"/>
        </g>
        <g>
          <path class="st7" d="M306.4,160.6h-15.6c-2.1-3.9-6.1-6-11.4-6-9.1,0-15.1,6.4-15.1,16.5s6.1,17,16.3,17,11.9-3.7,14-10.2h-17.9v-10.4h30.7v13.1c-3,10-12.6,20-27.9,20s-29.6-12.1-29.6-29.5,12.1-29.6,29.5-29.6,24,7.1,27,19Z"/>
          <path class="st5" d="M279.4,201.7c-18,0-30.6-12.5-30.6-30.5s12.5-30.6,30.5-30.6,24.8,7.4,28,19.8l.3,1.2h-17.5l-.3-.5c-2-3.6-5.6-5.4-10.5-5.4-8.6,0-14.1,6.1-14.1,15.5s5.6,16,15.3,16,10.4-2.8,12.6-8.2h-17.5v-12.4h32.7v14.4c-3.1,10.3-13.2,20.7-28.9,20.7ZM279.3,142.6c-16.8,0-28.5,11.8-28.5,28.6s11.8,28.5,28.6,28.5,24-9.6,26.9-19.1v-12h-28.7v8.4h18.3l-.4,1.3c-2.3,7.1-7.6,10.9-15,10.9-10.8,0-17.3-6.7-17.3-18s6.5-17.5,16.1-17.5,9.6,2.1,12,6h13.7c-3.3-10.7-12.8-17-25.7-17Z"/>
        </g>
      </g>
    </g>
  </g>
</svg>