<svg xmlns="http://www.w3.org/2000/svg" id="Layer_1" version="1.1" viewBox="108.3 10.8 991.6 319.1"><defs><style>.st1,.st3{isolation:isolate}.st5{fill:#3b82f6}.st1{display:none}.st7{fill:#fff}</style></defs><path d="M208.3 10.8c-8.2 0-14.8 6.6-14.8 14.8s3.5 11 8.5 13.3v34.8h12.4V39c5.1-2.3 8.7-7.6 8.7-13.4s-6.6-14.8-14.8-14.8h-.1zM339.9 25.6c0-8.2-6.6-14.8-14.8-14.8s-14.8 6.6-14.8 14.8 3.5 11.1 8.5 13.4v34.8h12.4V39c5-2.3 8.5-7.6 8.5-13.4zM266.8 10.8c-8.2 0-14.8 6.6-14.8 14.8s3.5 11.1 8.5 13.4v34.8h12.4V39c5-2.3 8.5-7.6 8.5-13.4s-6.6-14.8-14.8-14.8zM208.3 329.9c-8.2 0-14.8-6.6-14.8-14.8s3.5-11 8.5-13.3V267h12.4v34.7c5.1 2.3 8.7 7.6 8.7 13.4s-6.6 14.8-14.8 14.8h-.1zM339.9 315.1c0 8.2-6.6 14.8-14.8 14.8s-14.8-6.6-14.8-14.8 3.5-11.1 8.5-13.4v-34.8h12.4v34.8c5 2.3 8.5 7.6 8.5 13.4zM266.8 329.9c-8.2 0-14.8-6.6-14.8-14.8s3.5-11.1 8.5-13.4v-34.8h12.4v34.8c5 2.3 8.5 7.6 8.5 13.4s-6.6 14.8-14.8 14.8zM425.1 229c0 8.2-6.6 14.8-14.8 14.8s-11-3.5-13.3-8.5h-34.8v-12.4h34.7c2.3-5.1 7.6-8.7 13.4-8.7s14.8 6.6 14.8 14.8M410.3 97.4c8.2 0 14.8 6.6 14.8 14.8s-6.6 14.8-14.8 14.8-11.1-3.5-13.4-8.5h-34.8v-12.4h34.8c2.3-5 7.6-8.5 13.4-8.5zM425.1 170.7c0 8.2-6.6 14.8-14.8 14.8s-11.1-3.5-13.4-8.5h-34.8v-12.4h34.8c2.3-5 7.6-8.5 13.4-8.5s14.8 6.6 14.8 14.8zM108.3 229c0 8.2 6.6 14.8 14.8 14.8s11-3.5 13.3-8.5h34.8v-12.4h-34.7c-2.3-5.1-7.6-8.7-13.4-8.7s-14.8 6.6-14.8 14.8M123.1 97.4c-8.2 0-14.8 6.6-14.8 14.8s6.6 14.8 14.8 14.8 11.1-3.5 13.4-8.5h34.8v-12.4h-34.8c-2.3-5-7.6-8.5-13.4-8.5zM108.3 170.7c0 8.2 6.6 14.8 14.8 14.8s11.1-3.5 13.4-8.5h34.8v-12.4h-34.8c-2.3-5-7.6-8.5-13.4-8.5s-14.8 6.6-14.8 14.8z" class="st5"/><path d="M347.3 88.4c.9 0 1.6.7 1.6 1.6v160.7c0 .9-.7 1.6-1.6 1.6H186.6c-.9 0-1.6-.7-1.6-1.6V89.8c0-.9.7-1.6 1.6-1.6h160.7m0-14.1H186.6c-8.9 0-16 7.2-16 16v160.7c0 8.9 7.2 16 16 16h160.7c8.9 0 16-7.2 16-16V90c0-8.9-7.2-16-16-16Z" class="st5"/><path d="M317.2 118.4c.9 0 1.6.7 1.6 1.6v100.5c0 .9-.7 1.6-1.6 1.6H216.7c-.9 0-1.6-.7-1.6-1.6V120c0-.9.7-1.6 1.6-1.6zm0-14.3H216.7c-8.9 0-16 7.2-16 16v100.5c0 8.9 7.2 16 16 16h100.5c8.9 0 16-7.2 16-16V120.1c0-8.9-7.2-16-16-16" class="st5"/><path d="M294.8 145.1H322v11.7h-27.2zM293.8 182.1H322v13.4h-28.2z" class="st5"/><g class="st3"><g class="st3"><g class="st3"><text class="st3" style="font-family:Poppins-Bold,Poppins;font-size:192.6px;font-weight:700;isolation:isolate;fill:#3b82f6" transform="translate(450.3 210.7)"><tspan x="0" y="0">iGame</tspan></text></g></g></g><g class="st3"><g class="st3"><g class="st3"><path d="M897.5 223.6c13 0 22.8 7.3 25.9 19.2h-14.6c-2.3-4.7-6.4-7-11.5-7-8.2 0-13.8 6.1-13.8 15.7s5.6 15.7 13.8 15.7 9.2-2.3 11.5-7h14.6c-3.1 11.8-12.9 19.1-25.9 19.1S870 267.8 870 251.5s11.4-27.9 27.5-27.9M931.6 221.2h13.3v57.6h-13.3zM974.4 279.5c-12.8 0-22.4-8.6-22.4-22.4s9.9-22.4 22.6-22.4 22.6 8.6 22.6 22.4-10 22.4-22.7 22.4Zm0-11.5c4.8 0 9.2-3.5 9.2-10.8s-4.4-10.8-9-10.8-9 3.4-9 10.8 4.1 10.8 8.9 10.8ZM1047.1 278.9h-13.3V273c-2.6 3.7-7.3 6.4-13.2 6.4-10 0-16.8-6.9-16.8-18.5v-25.4h13.2v23.6c0 5.9 3.3 9.2 8.3 9.2s8.4-3.3 8.4-9.2v-23.6h13.3V279ZM1073.2 234.8c5.8 0 10.7 2.6 13.4 6.6v-20.2h13.3v57.6h-13.3v-6.2c-2.4 4-7 6.9-13.4 6.9-10.7 0-19.2-8.7-19.2-22.4s8.5-22.3 19.2-22.3m3.9 11.6c-5 0-9.5 3.7-9.5 10.7s4.5 10.8 9.5 10.8 9.5-3.8 9.5-10.7-4.4-10.7-9.5-10.7Z" class="st5"/></g></g></g><g class="st3"><g class="st3"><g class="st3"><path d="M226.5 141.8c0-4.3 3.4-7.7 8.4-7.7s8.3 3.4 8.3 7.7-3.4 7.6-8.3 7.6-8.4-3.4-8.4-7.6m1.4 12.4H242v46.1h-14.1z" class="st7"/><path d="M243 201.3h-16.1v-48.1H243zm-14.1-2H241v-44.1h-12.1zm6.1-48.9c-5.4 0-9.4-3.7-9.4-8.6s4-8.7 9.4-8.7 9.3 3.7 9.3 8.7-4 8.6-9.3 8.6m0-15.3c-4.3 0-7.4 2.8-7.4 6.7s3.1 6.6 7.4 6.6 7.3-2.8 7.3-6.6-3.1-6.7-7.3-6.7" class="st5"/><path d="M306.4 160.6h-15.6c-2.1-3.9-6.1-6-11.4-6-9.1 0-15.1 6.4-15.1 16.5s6.1 17 16.3 17 11.9-3.7 14-10.2h-17.9v-10.4h30.7v13.1c-3 10-12.6 20-27.9 20s-29.6-12.1-29.6-29.5 12.1-29.6 29.5-29.6 24 7.1 27 19Z" class="st7"/><path d="M279.4 201.7c-18 0-30.6-12.5-30.6-30.5s12.5-30.6 30.5-30.6 24.8 7.4 28 19.8l.3 1.2h-17.5l-.3-.5c-2-3.6-5.6-5.4-10.5-5.4-8.6 0-14.1 6.1-14.1 15.5s5.6 16 15.3 16 10.4-2.8 12.6-8.2h-17.5v-12.4h32.7V181c-3.1 10.3-13.2 20.7-28.9 20.7m-.1-59.1c-16.8 0-28.5 11.8-28.5 28.6s11.8 28.5 28.6 28.5 24-9.6 26.9-19.1v-12h-28.7v8.4h18.3l-.4 1.3c-2.3 7.1-7.6 10.9-15 10.9-10.8 0-17.3-6.7-17.3-18s6.5-17.5 16.1-17.5 9.6 2.1 12 6H305c-3.3-10.7-12.8-17-25.7-17Z" class="st5"/></g></g></g></svg>